<svg xmlns="http://www.w3.org/2000/svg" width="1524" height="1497.333">
  <path d="M172.5 1443.825c-29.908-1.375-54.593-4.09-58.104-6.392-2.283-1.495-2.408-1.431-3.827 1.966-1.218 2.914-1.98 3.51-4.483 3.51-3.89 0-5.59-2.8-3.92-6.464.927-2.035.822-4.838-.499-13.307-.92-5.9-2.156-16.109-2.746-22.685-.59-6.576-1.43-12.65-1.868-13.5-2.25-4.36-3.499-58.977-2.133-93.336 4.585-115.397 10.65-170.817 26.613-243.207 7.261-32.925 9.764-43.253 15.585-64.313 1.406-5.086 1.71-7.689.999-8.546-1.075-1.296 1.659-10.943 11.8-41.641 2.817-8.525 7.423-22.475 10.235-31 2.813-8.525 5.73-16.715 6.481-18.2.752-1.486 1.367-4.41 1.368-6.5 0-2.157 1.317-6.583 3.046-10.237 3.388-7.162 15.99-29.3 21.95-38.563 4.403-6.84 4.807-8.5 2.071-8.5-3.139 0-6.128-5.42-7.598-13.774-1.445-8.213-3.628-17.507-7.921-33.726-3.452-13.04-10.75-47.639-13.393-63.5-3.017-18.103-5.938-37.592-6.67-44.5-.35-3.3-1.042-8.475-1.54-11.5-1.334-8.107-6.257-49.57-9.914-83.5l-3.985-37c-1.125-10.45-2.261-20.125-2.526-21.5-.265-1.375-1.169-9.025-2.009-17-.84-7.975-2.429-22.15-3.53-31.5-4.504-38.263-6.13-52.98-8.01-72.5-1.085-11.275-2.206-22.3-2.491-24.5-.466-3.593-1.561-17.234-4.455-55.5-2.113-27.932-3.262-70.423-2.61-96.5.688-27.516 1.42-35.97 4.115-47.5 3.638-15.564 3.9-16.17 6.044-14.025.634.634 2.277.576 4.69-.165 2.799-.858 4.345-.853 6.267.022 2.523 1.15 27.62-.119 56.468-2.854 10.575-1.003 47.125-3.038 91.5-5.095 30.386-1.408 100.087-.584 128 1.513 47.463 3.567 86.859 7.704 116 12.183 32.167 4.944 44.505 7.093 71 12.367 13.198 2.626 20.18 4.124 38.5 8.26 34.842 7.863 89.589 26.096 108.422 36.108 11.471 6.098 20.975 17.445 16.16 19.293-1.455.558-18.353-5.34-29.082-10.15-6.484-2.908-29.493-11.41-44-16.26-19.203-6.419-54.848-15.808-78.5-20.677-20.823-4.286-32.062-6.506-37.5-7.406-3.3-.546-11.4-1.932-18-3.08-46.599-8.103-106.974-14.616-163-17.58-47.33-2.506-110.828-1.413-177.5 3.053-28.308 1.896-59.851 4.396-66.896 5.3l-5.395.693 9.78 11c10.17 11.436 43.537 48.158 54.056 59.488 6.688 7.204 27.758 30.538 42.455 47.017 5.225 5.86 14 15.579 19.5 21.6 5.5 6.021 13.642 14.986 18.093 19.921 13.96 15.482 39.6 43.778 43.92 48.474 2.277 2.475 9.73 10.542 16.563 17.926 20.153 21.78 21.168 22.994 20.558 24.585-1.576 4.108-4.092 1.89-47.063-41.511-38.368-38.752-101.457-106.018-126.639-135.024-21.506-24.773-42.898-52.101-52.464-67.026l-4.527-7.062-4.22.306c-4.02.291-4.21.449-3.973 3.306.136 1.65.238 21.45.227 44-.028 57.091 2.38 99.061 10.096 176 2.048 20.425 2.483 24.35 5.984 54 1.103 9.35 2.875 24.65 3.935 34a32503 32503 0 0 0 3.996 35c1.136 9.9 2.934 26.1 3.995 36 5.97 55.732 13.125 112.633 18.609 148 2.623 16.915 10.34 53.877 15.008 71.884 3.956 15.255 5.969 24.395 7.846 35.616.88 5.267 1.884 6.43 4.39 5.088 3.263-1.745 19.734-4.785 29.666-5.475 51.764-3.593 70.564-4.567 127-6.575 127.429-4.534 231.18-6.498 281-5.32 41.494.983 48.762.977 65.75-.049 15.378-.928 16.862-.28 8.756 3.828-15.31 7.758-29.423 8.665-163.006 10.475-38.775.525-77.475 1.2-86 1.497-8.525.298-28.1.986-43.5 1.529-15.4.543-42.4 1.445-60 2.006-41.74 1.329-100.463 4.521-128.5 6.986-5.775.507-13.71.942-17.634.966l-7.134.044-2.287 5.75c-1.257 3.162-3.159 7.013-4.225 8.557-1.066 1.545-7.987 15.001-15.38 29.904-11.889 23.967-13.83 28.608-16.812 40.192-1.855 7.203-4.496 16.697-5.87 21.097-5.652 18.1-11.41 39.262-22.038 81-13.144 51.622-20.687 90.822-26.553 138-1.794 14.426-2.806 25.198-6.009 64-3.791 45.921-5.44 123.63-3.192 150.5.621 7.425 1.13 25.312 1.132 39.75 0 14.437.25 26.25.552 26.25 2.19 0 7.167-4.187 14.45-12.157 11.646-12.745 36.39-38.206 68.117-70.092 26.127-26.258 29.741-29.169 31.27-25.183.822 2.141-6.401 9.74-58.173 61.191-23.941 23.793-43.303 43.485-43.028 43.76.276.276 9.91 1.507 21.408 2.735 19.51 2.084 25.081 2.224 83.406 2.096 72.51-.16 92.044-1.114 150-7.334 40.138-4.307 59.262-6.665 93.59-11.536 48.76-6.92 61.4-9.52 140.91-28.998 17.05-4.177 39.325-9.611 49.5-12.076 59.23-14.348 78.108-20.774 92.7-31.554 9.76-7.21 18.077-19.908 16.682-25.467-.709-2.823-.096-2.935 4.868-.892 2.1.865 2.125.14.698-19.493-1.77-24.352-2.692-152.3-1.958-272 .611-99.65.5-119.475-.734-130.5-.8-7.15-1.58-21.984-1.732-32.964l-.277-19.965-5.52-6.535c-4.708-5.573-7.115-7.367-16.338-12.178-11.33-5.91-13.486-7.854-8.722-7.865l2.833-.007-2.805-1.85c-4.39-2.894-6.122-5.905-4.917-8.55.822-1.802.652-2.462-.88-3.418-1.143-.714-1.898-2.32-1.898-4.036 0-2.34 2.55-5.378 14.25-16.969 12.215-12.102 14.093-14.37 13.148-15.879-.693-1.108-2.36-1.77-4.5-1.786-3.48-.027-11.898-4.654-11.898-6.54 0-.56 1.77 0 3.933 1.246 2.163 1.245 4.244 1.952 4.624 1.572.38-.38-.94-2.961-2.933-5.736-1.993-2.775-3.624-5.719-3.624-6.542 0-3.427 3.061-.974 9.432 7.557 4.35 5.826 7.33 8.945 8.357 8.747.878-.17 4.322-3.628 7.654-7.686l6.057-7.378-.072-63.12c-.04-34.715-.594-73.918-1.232-87.118-3.167-65.546-4.147-342.218-1.273-359.484 1.626-9.766 3.509-14.272 5.782-13.834 1.18.227 1.977 1.71 2.47 4.592.399 2.341.985 4.676 1.301 5.188.765 1.238 5.974-.662 17.044-6.217 16.019-8.038 66.202-29.99 96.98-42.421 29.116-11.761 67.464-25.228 100.5-35.294 7.425-2.263 17.1-5.21 21.5-6.549 54.512-16.592 114.845-30.529 172.5-39.847 32.712-5.286 54.628-8.142 82.5-10.749 39.14-3.662 85.698-2.596 94.594 2.165 2.716 1.454 2.499 5.78-.344 6.83-1.238.457-11.25 1.118-22.25 1.47-70.858 2.266-108.959 6.2-176 18.171-77.59 13.855-182.665 42.254-254.5 68.786-3.575 1.32-10.775 3.981-16 5.913-5.225 1.932-12.875 4.887-17 6.566a1277.46 1277.46 0 0 1-16.5 6.538 3706.638 3706.638 0 0 0-20.5 8.038c-21.239 8.405-47.106 17.57-54.651 19.361l-7.483 1.777.658 3c.361 1.65 1.017 62.625 1.458 135.5.822 136.097 2.09 204.892 5.654 307 .42 12.042.221 22.62-.572 30.304-1.74 16.854-.02 31.903 4.538 39.712 3.92 6.715 16.869 21.444 25.643 29.167 6.477 5.7 9.487 10.466 8.4 13.299-.744 1.94-4.913 1.948-8.647.017-4.06-2.1-33.82-35.375-36.892-41.25-.647-1.237-1.498-2.24-1.891-2.228-.393.012-2.03 1.878-3.636 4.148-5.186 7.326-18.47 23.043-29.172 34.514-5.739 6.15-10.028 11.433-9.534 11.739.495.306 1.456-.114 2.136-.933 2.418-2.914 6.59-1.736 13.189 3.724 8.794 7.276 20.844 17.683 23.695 20.465 1.317 1.285 3.881 3.255 5.699 4.379 1.817 1.123 3.578 2.903 3.912 3.955.502 1.581 2.885-.432 13.725-11.598 10.118-10.42 13.627-13.445 15.343-13.22 1.287.168 4.163-1.101 6.826-3.014 9.368-6.727 4.657.04-11.978 17.209l-16.58 17.11-.382 20.5c-.379 20.263-2.554 58.19-6.682 116.5-1.952 27.574-2.182 41.651-2.833 174-.39 79.2-1 145.8-1.356 148-.357 2.2-1.115 7.6-1.685 12-.571 4.4-1.266 8.952-1.544 10.115-.37 1.54.056 2.26 1.568 2.656 1.199.314 2.074 1.36 2.074 2.481 0 2.225 1.885 3.947 7.362 6.725 2.124 1.078 5.464 3.426 7.42 5.22 1.958 1.792 7.083 5.092 11.389 7.332 5.533 2.879 7.829 4.622 7.829 5.945 0 2.077 1.598 2.72 15 6.036 8.885 2.198 20.99 4.74 47 9.868 8.525 1.68 17.525 3.505 20 4.055 14.541 3.23 69.944 9.467 122 13.733 26.499 2.171 98.963 2.159 129-.023 62.73-4.556 103.37-10.69 160-24.148 19.8-4.705 25.155-5.857 39.5-8.496 8.8-1.619 19.825-3.683 24.5-4.588a19602.3 19602.3 0 0 1 20.302-3.913c6.491-1.248 12.06-2.527 12.376-2.842 1.569-1.57-8.374-16.648-15.04-22.808-1.578-1.459-2.705-3.12-2.504-3.691.528-1.5 24.357 13.688 30.95 19.728 3.071 2.813 5.953 5.115 6.405 5.115 1.13 0-.143-30.516-2.505-60-2.861-35.72-7.368-86.632-9.516-107.5-6.341-61.614-9.851-85.272-18.916-127.5-1.923-8.96-9.139-38.452-11.132-45.5-.778-2.75-3.26-11.75-5.515-20-9.934-36.331-24.11-81.284-35.952-114-8.555-23.636-12.829-33.813-23.725-56.5-5.33-11.096-8.183-18.97-10.298-28.419l-1.287-5.754-4.072.58c-2.239.319-17.346 1.245-33.571 2.057-16.225.813-38.05 1.954-48.5 2.536-10.45.582-34.075 1.724-52.5 2.538-29.509 1.302-57.345 2.67-131 6.438-10.725.549-27.15 1.45-36.5 2.005-9.35.554-30.05 1.686-46 2.515-15.95.83-35.75 1.95-44 2.488s-27.475 1.283-42.722 1.654c-25.88.63-27.766.558-28.395-1.082-.378-.984-.147-2.083.524-2.498.66-.407 9.837-1.729 20.396-2.937 10.558-1.208 24.597-2.855 31.197-3.66 15.641-1.91 37.598-4.083 65.5-6.485 24.87-2.141 38.47-3.57 47.43-4.986 3.797-.6 6.35-.586 7.102.037.763.634 8.283.458 21.57-.504 21.968-1.59 41.361-2.69 88.398-5.006 16.5-.813 39-1.948 50-2.522 68.548-3.578 84.724-4.27 108.914-4.653 14.803-.235 27.291-.66 27.75-.943.46-.284.836-1.89.836-3.568 0-1.678 3.18-10.314 7.068-19.19 12.919-29.502 13.443-30.824 21.087-53.14 4.188-12.23 5.233-15.636 10.736-35 1.72-6.05 3.544-12.35 4.056-14 3.13-10.102 18.101-70.057 26.094-104.5 2.744-11.825 5.43-23.3 5.968-25.5 1.344-5.494 4.843-23.221 6.613-33.5 8.276-48.085 12.852-90.265 15.513-143 1.56-30.913 1.543-124.361-.027-147-2.262-32.626-6.96-60.292-12.659-74.535-2.876-7.188-2.963-8.287-.893-11.243 1.086-1.55 2.578-2.222 4.93-2.222 5.69 0 7.928 3.445 12.45 19.164 4.087 14.209 6.713 29.995 9.247 55.598 1.95 19.7 2.152 27.647 2.15 84.738 0 53.75-.322 67.867-2.172 96.153-3.43 52.434-7.596 86.629-16.648 136.619-1.302 7.19-9.057 42.732-10.96 50.228-1.276 5.026-10.849 44.738-14.584 60.5-13.698 57.797-27.6 100.326-48.872 149.5-6.445 14.898-8.776 17.92-13.31 17.255-3.329-.488-3.36-.296-.762 4.554 1.114 2.078 3.766 8.147 5.893 13.485 2.127 5.338 6.875 15.78 10.55 23.206 13.13 26.53 28.26 67.032 42.022 112.5 1.499 4.95 3.307 10.8 4.02 13 5.654 17.464 23.045 81.486 25.94 95.5.739 3.575 2.528 11.9 3.976 18.5 7.615 34.7 11.903 64.289 17.026 117.5 5.206 54.063 5.897 62.61 9.55 118 .526 7.975.963 22.6.97 32.5.017 23.704-1.761 34.574-5.972 36.502a106.13 106.13 0 0 0-3.844 1.91c-1.29.672-6.914 1.89-12.5 2.707s-15.556 2.56-22.156 3.873c-6.6 1.314-17.175 3.33-23.5 4.482-20.762 3.78-37.339 7.17-47.41 9.697-24.313 6.099-46.465 10.721-68.59 14.312-10.175 1.651-20.75 3.444-23.5 3.983-2.75.54-11.525 1.676-19.5 2.525s-15.85 1.76-17.5 2.025c-1.65.266-15.375 1.47-30.5 2.676-40.14 3.202-113.282 3.208-149.5.012-13.75-1.213-27.925-2.653-31.5-3.199-3.575-.546-10.55-1.45-15.5-2.006-10.447-1.176-15.522-1.942-40-6.04-23.322-3.905-40.839-8.023-70.248-16.512-19.603-5.659-61.373-21.293-64.216-24.035-1.943-1.874-.756-1.769 6.803.6 9.374 2.94 10.372 2.423 3.66-1.891-3.52-2.264-6.392-3.499-6.95-2.99-1.927 1.763-4.11.746-9.209-4.289l-5.223-5.158-.682 2.718c-.401 1.6-1.198 2.52-1.936 2.236-.69-.265-3.372 1.973-5.961 4.972-12.571 14.561-32.111 24.136-69.038 33.83-3.3.867-8.475 2.247-11.5 3.068-3.025.82-11.35 2.868-18.5 4.551-7.15 1.683-26.725 6.433-43.5 10.555-39.648 9.742-62.054 15.168-69.5 16.833-3.3.737-9.15 2.049-13 2.914-16.04 3.606-42.958 8.546-60.63 11.127-50.488 7.375-91.169 12.126-158.87 18.555-5.775.548-37.05 1.423-69.5 1.944-64.858 1.041-63.751 1.042-88-.072zM788.912 850.66c.057-1.768-.426-2.75-1.353-2.75-2.341 0-2.536 1.298-1.286 8.584l1.186 6.916.683-5c.375-2.75.722-6.238.77-7.75zm138.456 480.809c-3.299-1.436-8.027-6.776-20.368-23.003-13.163-17.309-26.484-33.82-33.932-42.056-7.199-7.962-13.068-17.606-13.068-21.472 0-2.864 4.776-2.69 10.783.392 8.4 4.31 20.862 18.683 53.65 61.88 3.257 4.29 6.244 8 6.638 8.244.997.616 19.025-15.567 33.708-30.258 6.753-6.757 13.066-12.286 14.027-12.286 2.447 0 6.185 2.806 7.138 5.357 1.13 3.025-.245 5.98-5.698 12.248-6.239 7.17-40.482 38.401-44.564 40.643-3.765 2.069-4.233 2.086-8.314.31zm-488.35-49.541c-3.048-3.048-1.277-6.129 10.357-18.018 19.016-19.435 31.642-35.829 60.992-79.192 6.958-10.281 12.89-19.314 13.181-20.074.397-1.033-1.909-1.94-9.18-3.61-5.34-1.227-10.953-3.116-12.472-4.198l-2.762-1.967-3.817 4.604c-3.808 4.594-7.897 7.437-10.696 7.437-2.466 0-4.621-2.958-4.621-6.341 0-2.574 1.954-5.575 10-15.364 5.5-6.69 10-12.574 10-13.075 0-.5.96-1.767 2.134-2.815 1.173-1.048 7.068-7.98 13.099-15.405 13.681-16.844 23.512-26 27.917-26 5.915 0-2.277 15.678-18.684 35.756-6.856 8.39-12.466 15.907-12.466 16.703 0 .796 1.168 2.256 2.595 3.244 1.428.988 3.45 2.581 4.494 3.54 1.793 1.648 8.385 3.679 12.112 3.732 1.637.024 5.6-5.708 29.278-42.355 4.578-7.084 8.93-13.264 9.672-13.734 2.294-1.455 6.458-.976 8.194.943 3.72 4.111 2.748 6.015-23.085 45.17-7.973 12.085-8.227 12.652-7.652 17.044.678 5.176-.507 6.78-5.808 7.864-2.795.572-4.668 2.865-15.244 18.664-32.797 48.998-53.697 76.185-70.537 91.758-8.684 8.03-13.162 9.528-17.001 5.689zM510 1145.91c-.825-.533-1.95-.97-2.5-.97s-.325.437.5.97c.825.533 1.95.97 2.5.97s.325-.437-.5-.97zm465.912 108.33c-12.086-11.924-14.12-15.203-11.95-19.26 1.252-2.338 4.976-3.554 8.32-2.714 1.254.314 6.67 4.692 12.035 9.727 13.168 12.359 15.157 16.533 10.228 21.462-4.188 4.189-5.912 3.336-18.633-9.214zm-366.092-10.662c-5.553-1.57-11.26-5.684-13.265-9.561-.996-1.926-1.347-5.239-1.134-10.699.286-7.354.695-8.657 5.826-18.59 7.703-14.912 16.956-34.81 20.686-44.486 1.989-5.158 4.604-9.763 7.099-12.5l3.95-4.332 2.124 2.5c1.843 2.169 2.053 3.361 1.587 9-.567 6.86-3.125 13.801-11.744 31.878-2.722 5.709-4.95 10.751-4.95 11.206 0 .455 1.858.172 4.127-.629 6.488-2.289 15.906-1.913 19.884.795 6.899 4.695 9.637 11.948 7.933 21.01-1.08 5.744-6.509 14.544-11.16 18.092-8.394 6.402-21.329 9.041-30.963 6.316zm20.438-15.617c7.572-4.802 11.52-15.494 6.678-18.085-4.308-2.306-22.294 4.49-23.556 8.9-.257.9-1.367 3.426-2.467 5.615-1.888 3.759-1.903 4.053-.266 5.25.988.722 4.585 1.269 8.348 1.269 5.605 0 7.323-.45 11.263-2.949zm382.206 4.723c-3.32-2.91-8.388-7.016-11.264-9.127-5.104-3.747-10.2-10.709-10.2-13.935 0-.887.763-2.04 1.695-2.561 1.543-.864 1.414-1.56-1.447-7.8-5.612-12.241-5.021-21.581 1.65-26.067 8.161-5.487 19.575-1.88 45.102 14.253 6.325 3.997 13.405 7.777 15.733 8.4 4.62 1.234 6.267 3.317 6.267 7.925 0 3.396-3.898 7.152-7.385 7.116-3.307-.034-9.853-3.352-22.81-11.56-12.73-8.066-23.148-13.416-26.123-13.417-1.406 0-1.673.507-1.18 2.249 1.97 6.969 10.877 21.222 20.68 33.092 2.655 3.214 5.108 6.965 5.452 8.337.926 3.69-2.446 7.747-6.733 8.102-2.871.238-4.342-.543-9.437-5.007zm-460.31-25.524c-7.303-6.14-5.847-17.58 4.083-32.076 4.993-7.289 12.483-10.434 14.752-6.195 1.476 2.758.41 6.46-4.035 14.02-7.664 13.035-7.665 15.586-.007 11.797 5.875-2.907 14.94-12.002 18.879-18.945 1.763-3.107 3.91-5.92 4.772-6.25 4.248-1.63 7.851.355 9.008 4.964 1.29 5.138-7.968 18.496-18.615 26.86-11.44 8.99-22.433 11.21-28.837 5.825zm374.83-8.062c-1.64-1.327-2.052-2.397-1.544-3.998.833-2.626 4.991-3.907 7.073-2.18 2.103 1.746 1.847 5.727-.447 6.955-2.503 1.34-2.46 1.346-5.082-.777zm137.815-4.018c-.936-.369-3.64-2.92-6.01-5.67-6.267-7.275-22.717-22.736-43.622-41-14.225-12.428-19.421-17.65-23.277-23.39-2.73-4.063-4.8-7.888-4.599-8.5.746-2.266 5.046-1.672 12.027 1.664 5.566 2.658 11.429 7.187 26.054 20.123 10.38 9.181 19.02 16.543 19.203 16.36.183-.182-.341-4.14-1.164-8.794-2.632-14.892-2.79-22.8-.571-28.463 2.614-6.67 4.605-6.556 8.749.5 2.213 3.769 3.434 7.388 3.878 11.5.792 7.344 4.011 24.312 4.753 25.053.297.297 2.506-.493 4.91-1.757 4.64-2.438 8.167-2.615 33.262-1.669 9.33.352 10.004.523 11.868 3.02 1.564 2.095 1.782 3.227 1.045 5.438-1.615 4.846-5.214 6.67-12.956 6.567-3.767-.05-8.421-.555-10.343-1.121-8.02-2.367-17.927-.211-22.464 4.886-2.164 2.431-2.353 1.98 4.208 10.04 3.06 3.76 4.25 6.134 4.25 8.478 0 4.735-4.996 8.392-9.201 6.735zm-792.722-46.759c-7.41-6.234-1.921-14.77 28.674-44.6 9.201-8.971 22.123-21.573 28.714-28.004 6.59-6.43 11.722-11.953 11.404-12.272-.32-.319-3.458.1-6.975.928-3.93.927-11.339 1.513-19.227 1.522-20.847.024-34.003-4.29-43.261-14.19-12.498-13.36-13.588-32.143-3.115-53.718 16.07-33.11 60.702-61.86 107.603-69.314 11.64-1.85 14.416-1.98 21.202-.99 12.96 1.889 18.904 6.209 18.904 13.741 0 4.746-1.92 8.236-7.22 13.12-10.056 9.27-30.315 18.252-49.28 21.848-10.442 1.98-12.83 1.915-14.935-.41-3.163-3.495-1.245-5.794 6.745-8.086 15.407-4.42 24.064-8.064 38.975-16.403 6.438-3.6 12.337-8.294 11.489-9.142-.247-.247-2.93-.908-5.963-1.468-16.07-2.97-54.9 8.59-76.811 22.87-25.019 16.304-39.994 34.937-43.648 54.31-4.264 22.609 9.377 34.772 39.062 34.83 9.157.017 26.586-2.73 26.586-4.19 0-1.192-7.882-4.593-12.254-5.288-9.877-1.57-10.47-13.55-.667-13.48 1.881.013 5.446.493 7.92 1.067 6.034 1.4 24.909-.43 36.049-3.495 9.045-2.49 12.016-2.215 13.887 1.28.586 1.096 1.065 2.921 1.065 4.058 0 2.764-40.573 45.576-63.534 67.04-9.693 9.062-21.166 20.165-25.494 24.674-7.262 7.564-7.83 8.456-7.331 11.525.634 3.908-1.694 7.403-7.948 11.933-4.915 3.56-6.686 3.611-10.616.304zm835.288-9.442c-8.43-2.599-17.996-12.38-20.331-20.788-1.361-4.898-1.304-12.547.128-17.329 1.537-5.128 6.79-10.433 11.141-11.25 12.537-2.351 18.058 13.745 9.195 26.805-1.374 2.025-2.498 4.029-2.498 4.453 0 1.707 7.966 5.14 11.926 5.14 9.384 0 16.608-6.825 18.525-17.5.934-5.204 3.092-7.5 7.049-7.5 6.073 0 8.336 5.189 6.088 13.961-2.536 9.901-7.4 16.08-16.996 21.594-4.088 2.349-6.26 2.867-13 3.1-4.45.154-9.503-.155-11.227-.686zm-686.006-28.52c-1.972-1.97-2.405-3.163-1.91-5.25.352-1.484 1.408-3.144 2.346-3.688 2.647-1.535 15.698-15.196 17.202-18.007 1.194-2.23 1.114-2.764-.71-4.758-4.727-5.17-7.736-16.322-5.328-19.746.914-1.299 1.29-1.224 2.798.558.959 1.132 4.105 3.812 6.993 5.956 2.887 2.143 5.25 4.292 5.25 4.775 0 1.858 2.143-.263 14.948-14.79 15.8-17.924 20.004-21.932 26.403-25.176 8.203-4.158 9.749-1.401 4.743 8.455-1.598 3.147-4.345 7.072-6.105 8.722-1.76 1.65-8.335 8.94-14.612 16.202-6.277 7.26-11.854 13.475-12.395 13.809-.54.334-.982.958-.982 1.387 0 1.045 4.623 3.102 6.97 3.102 2.576 0 8.03 4.765 8.03 7.016 0 1.011-1.238 2.819-2.75 4.016-2.278 1.804-3.629 2.089-7.872 1.658-2.818-.285-6.968-1.46-9.222-2.61l-4.1-2.092-7.72 9.076c-7.388 8.687-14.062 13.936-17.72 13.936-.939 0-2.855-1.148-4.257-2.55zm725.646-23.119c-8.01-4.125-11.516-10.16-11.475-19.752.022-5.297.577-8.116 2.206-11.202 2.305-4.37 6.926-8.817 10.258-9.874 1.103-.35 2.006-1.234 2.006-1.963 0-.73-8.213-9.125-18.25-18.657-19.17-18.205-23.16-22.92-24.234-28.649-.99-5.279.422-5.874 7.584-3.196 5.543 2.073 8.325 4.342 25.806 21.047 10.777 10.299 24.536 23.717 30.577 29.82 6.04 6.103 11.332 11.096 11.76 11.096.427 0 1.784-2.121 3.017-4.713 2.914-6.13 6.224-8.123 10.274-6.182 4.183 2.005 5.199 5.687 3.09 11.207-6.45 16.89-25.175 32.213-40.785 33.376-5.532.412-7.04.112-11.834-2.358zm15.563-12.796c2.713-.807 6.463-2.745 8.334-4.309l3.402-2.842-4.627-3.791c-7.688-6.3-15.363-6.794-18.77-1.207-1.045 1.713-1.901 3.925-1.903 4.915-.01 2.792 2.775 7.497 4.732 8.008 3.043.793 3.775.73 8.832-.774zm-783.913 7.637c-3.262-3.604-2.082-6.463 6.754-16.368 9.567-10.725 14.183-14.571 18.53-15.44 4.87-.975 4.916 1.681.185 10.973-5.524 10.85-16.347 22.664-20.761 22.664-1.688 0-3.793-.818-4.708-1.829zm854.164-46.421c-3.932-3.143-2.932-8.374 2.99-15.65 7.05-8.662 6.788-7.991 3.57-9.158-1.584-.574-4.68-3.335-6.88-6.135-7.115-9.057-30.796-32.447-38.25-37.78-3.987-2.853-7.264-5.489-7.282-5.857-.018-.369-.9-1.71-1.96-2.982l-1.928-2.312-7.297 7.562c-6.388 6.62-7.739 7.562-10.84 7.562-4.29 0-5.942-1.464-5.942-5.266 0-3.796 1.361-6.197 7.08-12.486 2.627-2.889 9.133-10.84 14.457-17.67 10.566-13.551 12.896-15.132 17.39-11.792 1.733 1.288 2.67 3.042 2.872 5.373.254 2.944-.603 4.59-5.75 11.038-3.327 4.168-6.05 8.02-6.05 8.56 0 .54 1.596 1.24 3.546 1.557 7.433 1.206 25.872 17.126 45.087 38.929 5.702 6.47 10.368 12.46 10.368 13.31 0 1.035.457 1.282 1.383.747 1.878-1.087 10.727-11.853 13.876-16.884l2.556-4.083-10.37-5.888c-11.213-6.367-14.311-9.86-13.083-14.75.495-1.976 1.48-2.762 4.059-3.246 4.003-.751 6.716-.017 11.809 3.197 4.483 2.829 6.28 3.037 5.223.604-5.426-12.489-6.673-25.796-2.891-30.864 5.222-6.998 12.975-9.011 22.578-5.862 6.448 2.114 18.874 8.232 26.1 12.85 2.893 1.849 6.635 3.663 8.316 4.03 6.672 1.461 8.311 11.062 2.41 14.113-4.31 2.23-5.84 1.877-13.466-3.095-10.681-6.964-26.14-14.467-30.304-14.708l-3.696-.214.208 4.442c.233 4.953.564 5.92 7.438 21.705 2.67 6.131 4.854 12.258 4.854 13.615 0 3.174-3.582 7.738-6.073 7.738-1.435 0-1.928.702-1.93 2.75-.01 4.497-.436 5.076-27.682 37.398-4.635 5.498-8.442 9.049-10.452 9.75-3.956 1.379-4.14 1.374-6.044-.148zm-218.86-11.501c-12.21-12.83-28.902-30.138-60.025-62.25-63.748-65.769-96.78-101.693-115.67-125.796-7.587-9.68-7.553-12.427.046-3.685 10.077 11.595 27.323 30.275 51.681 55.982 13.55 14.3 33.608 35.665 44.573 47.478A17689.135 17689.135 0 0 0 968 971.808l30.333 32.457c18.235 19.512 24.214 26.431 23.476 27.17-.26.26-3.793-3.014-7.85-7.276zm-583.987-6.953c-3.825-2.637-4.906-4.487-4.94-8.457-.025-2.87.623-4.212 2.999-6.212 5.34-4.493 12.444-5.625 19.469-3.104 3.866 1.388 4.16 1.337 8.816-1.543 7.863-4.864 11.12-3.355 8.143 3.772-2.686 6.428-6.23 9.995-13.59 13.677-8.282 4.143-16.525 4.88-20.897 1.867zm262.34-130.046c2.998-3.487 48.231-48.04 48.5-47.771.192.192-.093 1.177-.634 2.188-1.512 2.825-45.93 46.333-47.303 46.333-.665 0-.918-.338-.563-.75zm134.14-116c2.297-9.432 33.68-49.586 60.555-77.478 6.931-7.193 9.111-8.89 11.063-8.615 4.63.654 3.52 3.999-4.81 14.474a3648.776 3648.776 0 0 0-17.207 21.869c-24.58 31.511-43.891 52.5-48.306 52.5-1.638 0-1.853-.456-1.294-2.75zm-444.056-92.603c-10.253-3.372-19.347-13.196-23.595-25.489-2.017-5.835-2.294-8.513-2.247-21.658.054-14.957.959-19.722 5.794-30.5.45-1.003-1.75-4.316-6.642-10-8.34-9.692-38.585-47.676-46.456-58.344-2.888-3.914-5.3-8.025-5.36-9.136-.261-4.757.355-7.127 2.28-8.77 2.116-1.805 6.39-2.465 5.38-.83-.313.506.46 1.743 1.717 2.75 1.258 1.006 3.387 3.405 4.73 5.33 1.345 1.925 8.503 11.139 15.908 20.475 15.326 19.324 14.285 19.16 15.538 2.441 2.257-30.106-6.905-60.278-19.445-64.035-3.477-1.042-4.28-.906-8.186 1.383-11.418 6.691-20.28 27.405-27.403 64.046-1.41 7.254-3.462 17.69-4.56 23.19-2.4 12.035-3.725 37.84-1.996 38.91 2.1 1.297 1.306 3.752-1.103 3.41-7.741-1.1-11.242-36.597-6.344-64.32 7.518-42.546 20.365-69.725 36.837-77.934 19.173-9.554 38.658 9.113 43.77 41.934 2.003 12.861 1.76 12.474 4.682 7.43 12.462-21.512 25.443-35.62 39.178-42.579 4.879-2.472 6.757-2.85 14.127-2.846 10.59.006 14.275 1.64 22.549 9.994 17.452 17.622 24.986 54.18 19.506 94.642-5.64 41.636-21.008 74.477-43.125 92.153-10.243 8.185-25.289 11.722-35.534 8.353zm21.806-15.25c16.34-8.28 32.775-35.961 40.327-67.922 2.852-12.072 2.892-12.475 1.223-12.475-.687 0-4.866-1.834-9.286-4.076-12.52-6.348-23.18-6.43-36.185-.277C394.188 581.439 380 594.174 380 596.76c0 .878 2.672 4.308 5.937 7.623 7.256 7.365 8.278 10.403 4.704 13.977-3.698 3.698-6.085 3.189-12.212-2.606-2.998-2.835-5.604-4.973-5.79-4.75-.188.223-1.083 3.423-1.99 7.111-5.297 21.536 2.633 44.378 16.615 47.859 4.694 1.169 11.477.101 16.938-2.666zm-26.603-84.158c8.651-8.497 18.095-14.143 27.953-16.71 6.662-1.736 17.87-1.96 24.263-.485 3.36.775 13.59 5.076 18.294 7.69 1.155.642 1.65-17.963.786-29.538-.477-6.38-1.782-15.222-2.901-19.648-4.137-16.362-13.541-30.923-21.714-33.62-4.266-1.409-10.09-.574-15.622 2.239-5.96 3.03-18.334 15.897-25.012 26.007-7.785 11.787-17.767 31.508-21.17 41.826-1.542 4.675-3.678 9.48-4.747 10.678-1.68 1.884-1.76 2.433-.586 4.063 1.316 1.827 12.257 15.219 12.456 15.246.054.007 3.654-3.48 8-7.748zm888.4 47.586c-5.205-1.48-9.52-5.203-12.025-10.38-3.15-6.505-2.448-15.61 1.857-24.122 1.718-3.398 3.584-6.462 4.147-6.81 1.898-1.172 1.04-2.513-1.61-2.513-2.795 0-9.368 3.551-9.368 5.061 0 1.285-6.94 4.65-11.264 5.46-2.773.52-4.787.149-8.237-1.521-10.532-5.099-11.161-18.52-1.546-32.956 1.632-2.451 2.85-4.575 2.704-4.72-.145-.145-5.356.623-11.581 1.706-17.973 3.128-25.623 2.31-29.445-3.147-4.83-6.896.244-15.848 20.341-35.883 18.995-18.936 43.707-41.77 48.494-44.808 14.467-9.18 23.821-11.276 17.625-3.95-1.05 1.242-4.313 5.436-7.25 9.321-2.938 3.885-15.916 17.015-28.841 29.178-23.822 22.416-36.743 35.85-35.59 37.002 1.03 1.03 17.79-1.691 29.755-4.83 12.943-3.396 16.886-3.619 19.18-1.084 3.395 3.75 2.15 7.577-5.595 17.197-8.408 10.443-12.75 18.013-12.75 22.229 0 2.641.254 2.894 2.25 2.237 1.237-.408 7.2-1.077 13.25-1.486 6.05-.41 13.315-1.44 16.144-2.29 3.473-1.043 7.21-1.367 11.5-.995 9.929.86 13.882 3.57 18.556 12.715 5.195 10.167 2.204 23.872-7.207 33.019-6.703 6.514-15.036 8.773-23.493 6.37zm13.963-16.575c5.49-5.302 5.945-7.632 1.82-9.34-1.797-.745-4.93-2.856-6.962-4.692l-3.695-3.338-1.646 2.512c-2.31 3.524-4.516 11.322-3.786 13.382 2.283 6.447 8.458 7.086 14.269 1.476zm-250.692-66.953c-2.672-.516-6.27-4.81-6.27-7.482 0-5.419 3.708-9.182 25-25.372 8.525-6.482 17.75-13.656 20.5-15.942 2.75-2.287 14.315-11.885 25.7-21.33 11.386-9.444 21.06-17.815 21.5-18.601.44-.786 1.935-2.024 3.322-2.75s6.939-4.92 12.339-9.32l9.817-8-13.339-.596c-10.241-.458-14.616-1.096-18.84-2.75-3.024-1.184-6.182-2.153-7.016-2.154-.834 0-6.46 4.966-12.5 11.036-10.202 10.252-11.23 11.016-14.465 10.75-2.725-.224-3.68-.853-4.393-2.896-1.618-4.629.224-7.81 10.752-18.57l10.301-10.528-1.839-3.608c-1.923-3.77-2.437-13.824-.904-17.684 1.014-2.556-3.952-9.812-8.935-13.054-10.843-7.053-34.173-3.948-46.603 6.203-2.257 1.843-5.02 3.35-6.14 3.35-3.33 0-6.367-3.164-6.469-6.742-.078-2.74 1.18-4.555 8.31-11.993 4.621-4.82 8.852-8.764 9.402-8.764.55 0 1.144 1.012 1.32 2.25.388 2.736.01 2.731 10.85.144 16.615-3.962 30.511-1.151 40.8 8.253 6.112 5.585 12.547 15.36 12.498 18.984-.017 1.303-.692 3.242-1.5 4.31-1.534 2.029-2.02 8.1-.711 8.909.416.257 6.829-5.106 14.25-11.918 7.421-6.812 16.643-14.292 20.493-16.622 3.85-2.33 9.374-6.004 12.276-8.164 8.614-6.41 8.197-4.564-2.65 11.732-5.311 7.98-9.159 12.203-20.032 21.987l-13.458 12.11 3.932 1.185c6.325 1.908 22.99 1.591 33.852-.644 11.045-2.272 23.355-7.58 27.913-12.038 1.719-1.68 4.26-3.286 5.646-3.57 1.386-.282 4.98-1.657 7.985-3.055 3.006-1.398 7.805-2.783 10.665-3.079 4.635-.478 5.48-.255 7.785 2.05 3.966 3.965 3.607 9.453-.923 14.118-4.23 4.354-14.33 11.02-19.071 12.584-5.221 1.724-6.445.559-1.875-1.784 5.704-2.924 14.96-13.242 11.88-13.242-1.076 0-14.886 8.31-25.925 15.6-10.872 7.18-30.4 21.99-38.662 29.321-4.236 3.76-4.248 3.79-1.996 4.995 1.247.667 9.498 1.782 18.336 2.478l16.07 1.266 2.33-2.33c3.462-3.461 7.612-3.057 12.324 1.2 3.44 3.109 3.99 4.238 4.593 9.428.446 3.839 1.526 7.037 3.095 9.164 3.152 4.272 3.12 8.175-.09 10.7-1.375 1.08-2.5 2.897-2.5 4.034 0 4.175-4.193 13.101-7.992 17.016-7.024 7.238-16.016 7.826-23.012 1.505-4.899-4.425-6.375-8.844-5.77-17.269.55-7.673 3.12-13.36 8.845-19.57 2.16-2.344 3.929-4.507 3.929-4.806 0-1.111-26.55-3.732-30.384-2.999-1.844.352-3.036 1.96-5.163 6.964-5.15 12.118-17.353 26.375-34.519 40.327-12.519 10.176-23.142 17.045-32.144 20.784-9.69 4.025-24.406 6.056-32.52 4.489zm26.656-16.434c11.26-4.081 31.028-18.766 45.128-33.524 7.45-7.798 15.671-18.947 14.693-19.926-.277-.277-4.721 3.04-9.875 7.371-17.205 14.456-42.311 34.645-51.14 41.122-11.869 8.708-11.651 9.612 1.194 4.957zm116.703-25.801c2.176-4.535 3.698-14.046 2.675-16.713-.443-1.152-1.342-.742-4.025 1.834-8.022 7.703-10.226 20.412-3.401 19.621 1.986-.23 3.138-1.38 4.751-4.742zm105.642 29.974c-4.51-2.047-8.261-6.964-8.267-10.836-.01-5.9 5.632-11.2 11.923-11.2 3.765 0 6.602 3.754 5.664 7.493-1.386 5.522 2.868 1.699 5.9-5.304 2.767-6.387 7.564-8.134 11.509-4.19 2.545 2.545 2.528 5.6-.064 11.668-5.178 12.121-16.075 17.176-26.665 12.37zm-793.89-18.828c-2.796-1.53-14.299-14.126-30.673-33.584-6.22-7.392-8.708-12.175-8.708-16.746 0-2.558.348-2.878 3.132-2.878 4.727 0 8.955 3.171 17.036 12.779 4.033 4.794 11.92 13.979 17.526 20.41 7.374 8.46 10.378 12.68 10.863 15.263 1.169 6.23-2.762 8.268-9.176 4.756zm20.3-36.809c-2.65-1.379-6.838-4.615-9.307-7.192C491.13 463.689 483 449.328 483 446.263c0-.779-.692-1.681-1.537-2.006-1.96-.752-4.463-5.554-4.463-8.562 0-1.273.9-3.994 2-6.046 1.1-2.053 2-4.873 2-6.268 0-3.629 2.615-9.386 4.61-10.152 1.11-.426 2.333.127 3.518 1.59.999 1.234 2.242 1.98 2.763 1.658 1.772-1.095 3.109-10.636 3.109-22.182 0-15.36 1.772-18.49 7.153-12.635 4.205 4.574 5.192 8.42 4.505 17.541-.34 4.515-.894 9.39-1.23 10.832-.58 2.487-.364 2.66 4.206 3.345 24.48 3.67 37.966 37.324 22.882 57.1-5.881 7.71-18.194 9.848-27.835 4.831zm17.084-12.65c4.455-4.741 4.827-16.837.76-24.702-2.42-4.677-8.488-9.96-12.766-11.112-6.512-1.753-8.883-.626-12.262 5.827-1.644 3.141-2.85 6.392-2.679 7.224.619 3.007 6.344 14.538 8.85 17.823 5.409 7.092 13.9 9.41 18.097 4.94zM412.653 450.42c-3.439-3.439-3.148-11.51.414-11.51 2.332 0 2.346-.247.382-6.86-1.945-6.549-1.607-15.497.601-15.916 2.606-.494 8.313 4.105 10.893 8.78 2.939 5.322 3.526 16.85 1.092 21.418-2.627 4.93-10.22 7.25-13.382 4.088zm570.533-80.49c-5.311-3.848-7.472-8.126-7.472-14.796 0-6.793 3.904-12.603 10.9-16.224 4.181-2.165 6.24-2.518 15.357-2.636 5.791-.075 11.28.26 12.198.742 3.046 1.602 3.105 6.134.195 14.94-4.737 14.332-11.488 20.954-21.362 20.954-4.74 0-6.396-.503-9.816-2.98zm13.515-12.27c2.38-2.614 4.299-6.102 4.299-7.815 0-1.59-6.393-.563-9.606 1.542-3.84 2.516-2.69 8.523 1.632 8.523.894 0 2.548-1.013 3.675-2.25zm-131.26-3.201c-.987-1.505-1.344-3.28-.925-4.598.374-1.181 9.299-10.647 19.832-21.036 17.532-17.292 19.044-19.057 17.9-20.888-1.848-2.96-1.517-7.416.768-10.32 2.547-3.239 7.452-4.876 13.746-4.589l4.912.224 17.46-15.42c9.602-8.483 19.913-17.519 22.912-20.081l5.454-4.66-6.844-3.09c-8.816-3.983-24.166-7.091-35.012-7.091-11 0-28.891 3.411-34.257 6.532-4.023 2.34-7.21 7.327-5.967 9.338.337.546.178 1.26-.354 1.589-1.343.83-3.066-2.726-3.066-6.328 0-8.726 6.821-15.778 20.5-21.194 5.486-2.172 7.456-2.376 23-2.378 13.078 0 18.5.403 23.5 1.754 25.24 6.815 40.521 17.128 48.204 32.532 2.73 5.475 3.163 7.396 3.152 14-.01 5.694-.573 8.915-2.203 12.575-8.086 18.158-31.7 30.58-58.131 30.58-6.655 0-12.82-.603-16.562-1.62-3.278-.892-6.86-1.813-7.96-2.048-1.512-.322-6.933 4.344-22.213 19.12-17.168 16.604-20.666 19.548-23.227 19.548-2.095 0-3.503-.747-4.62-2.451zm88.862-47.17c25.516-5.748 38.503-21.987 30.39-37.998-2.636-5.203-9.656-12.381-12.108-12.381-.775 0-5.82 5.062-11.212 11.25-5.392 6.187-14.769 16.425-20.838 22.75-6.07 6.325-11.608 12.523-12.308 13.774-1.137 2.029-1.03 2.371 1 3.186 3.689 1.482 17.32 1.166 25.076-.581zM1308 234.342c0-.456 16.26-28.847 24.016-41.932.978-1.65 10.762-18.525 21.742-37.5s21.82-37.633 24.09-41.463c2.27-3.83 4.296-7.43 4.503-8 .206-.57.706-.73 1.11-.356.404.375-2.071 6-5.502 12.5-11.391 21.586-50.96 89.632-65.46 112.57-2.642 4.181-4.5 5.907-4.5 4.181z"/>
</svg>