<?xml version="1.0" encoding="UTF-8" standalone="no"?>
<!-- Created with Inkscape (http://www.inkscape.org/) -->

<svg
   xmlns:dc="http://purl.org/dc/elements/1.1/"
   xmlns:cc="http://creativecommons.org/ns#"
   xmlns:rdf="http://www.w3.org/1999/02/22-rdf-syntax-ns#"
   xmlns:svg="http://www.w3.org/2000/svg"
   xmlns="http://www.w3.org/2000/svg"
   xmlns:sodipodi="http://sodipodi.sourceforge.net/DTD/sodipodi-0.dtd"
   xmlns:inkscape="http://www.inkscape.org/namespaces/inkscape"
   version="1.1"
   id="svg10"
   width="1524"
   height="1497.3333"
   viewBox="0 0 1524 1497.3333"
   sodipodi:docname="CootiesCaught.png"
   inkscape:version="0.92.4 (5da689c313, 2019-01-14)">
  <metadata
     id="metadata16">
    <rdf:RDF>
      <cc:Work
         rdf:about="">
        <dc:format>image/svg+xml</dc:format>
        <dc:type
           rdf:resource="http://purl.org/dc/dcmitype/StillImage" />
        <dc:title></dc:title>
      </cc:Work>
    </rdf:RDF>
  </metadata>
  <defs
     id="defs14" />
  <sodipodi:namedview
     pagecolor="#ffffff"
     bordercolor="#666666"
     borderopacity="1"
     objecttolerance="10"
     gridtolerance="10"
     guidetolerance="10"
     inkscape:pageopacity="0"
     inkscape:pageshadow="2"
     inkscape:window-width="1366"
     inkscape:window-height="706"
     id="namedview12"
     showgrid="false"
     inkscape:zoom="0.3586376"
     inkscape:cx="628.41588"
     inkscape:cy="753.91705"
     inkscape:window-x="-8"
     inkscape:window-y="-8"
     inkscape:window-maximized="1"
     inkscape:current-layer="svg10" />
  <path
     style="fill:#000000"
     d="m 172.49994,1443.8246 c -29.90783,-1.3749 -54.59251,-4.0901 -58.10426,-6.3911 -2.28274,-1.4957 -2.4073,-1.4317 -3.82662,1.9652 -1.21773,2.9145 -1.97962,3.5112 -4.48291,3.5112 -3.8902,0 -5.58932,-2.8017 -3.92044,-6.4645 0.92753,-2.0357 0.82251,-4.838 -0.49871,-13.3071 -0.92053,-5.9006 -2.156091,-16.1088 -2.7457,-22.6849 -0.589608,-6.5761 -1.430417,-12.6511 -1.868464,-13.5 -2.25014,-4.3607 -3.498385,-58.9773 -2.133182,-93.3368 4.585064,-115.3969 10.649546,-170.8163 26.613806,-243.2067 7.26091,-32.9248 9.76369,-43.2528 15.58501,-64.3132 1.4056,-5.08521 1.70978,-7.68874 0.99842,-8.54587 -1.07517,-1.2955 1.65879,-10.94285 11.80062,-41.64092 2.81644,-8.525 7.42211,-22.475 10.23483,-31 2.81273,-8.525 5.7291,-16.71515 6.48082,-18.20034 0.75173,-1.48519 1.36714,-4.41019 1.36757,-6.5 4.5e-4,-2.157 1.31721,-6.58236 3.04583,-10.23636 3.38823,-7.16214 15.98955,-29.29984 21.95117,-38.5633 4.40184,-6.8398 4.80621,-8.5 2.0703,-8.5 -3.13866,0 -6.12795,-5.41922 -7.59794,-13.77412 -1.44505,-8.21311 -3.62793,-17.50679 -7.92147,-33.72588 -3.45206,-13.04038 -10.74891,-47.63864 -13.39229,-63.5 -3.0169,-18.10267 -5.938,-37.59187 -6.6698,-44.5 -0.34958,-3.3 -1.04281,-8.475 -1.5405,-11.5 -1.33389,-8.10739 -6.25654,-49.56995 -9.91356,-83.5 -1.06703,-9.9 -2.86036,-26.55 -3.98516,-37 -1.12481,-10.45 -2.26163,-20.125 -2.52627,-21.5 -0.26464,-1.375 -1.16871,-9.025 -2.00904,-17 -0.84034,-7.975 -2.42855,-22.15 -3.52935,-31.5 -4.50478,-38.26259 -6.13067,-52.97903 -8.00986,-72.5 -1.08539,-11.275 -2.20685,-22.3 -2.49212,-24.5 -0.46587,-3.5927 -1.5608,-17.23357 -4.45488,-55.5 -2.11248,-27.93195 -3.26158,-70.42329 -2.60965,-96.5 0.6879,-27.51595 1.42034,-35.97012 4.1152,-47.5 3.63767,-15.56367 3.89886,-16.16974 6.04395,-14.02465 0.63379,0.63379 2.27632,0.57606 4.69047,-0.16486 2.79828,-0.85882 4.34458,-0.8534 6.26575,0.0219 2.52369,1.14987 27.62122,-0.11885 56.46843,-2.85456 10.57509,-1.00289 47.12555,-3.03786 91.5,-5.09434 30.3858,-1.40818 100.08728,-0.58425 128,1.51308 47.46333,3.56634 86.85891,7.70376 116,12.18262 32.16693,4.94392 44.50542,7.09298 71,12.36646 13.19765,2.62685 20.18037,4.12489 38.5,8.25959 34.84199,7.86376 89.58888,26.0965 108.42223,36.10861 11.47123,6.09829 20.97487,17.44529 16.15903,19.2933 -1.45383,0.55789 -18.35201,-5.34027 -29.08126,-10.15054 -6.4844,-2.90717 -29.49253,-11.40921 -44,-16.25902 -19.20292,-6.41949 -54.84813,-15.80872 -78.5,-20.67753 -20.82245,-4.28637 -32.0621,-6.50604 -37.5,-7.40573 -3.3,-0.54597 -11.4,-1.9318 -18,-3.07961 -46.59846,-8.10395 -106.97398,-14.61615 -163,-17.58143 -47.33034,-2.50504 -110.8277,-1.41257 -177.5,3.05388 -28.3081,1.89639 -59.85096,4.39546 -66.8956,5.3 l -5.3956,0.69279 9.78075,11 c 10.1689,11.43654 43.53697,48.15797 54.05586,59.48826 6.68782,7.20371 27.75747,30.5378 42.45459,47.01736 5.225,5.85868 14,15.57848 19.5,21.59956 5.5,6.02108 13.64166,14.98558 18.09258,19.92112 13.96136,15.48146 39.59978,43.77816 43.91994,48.4737 2.27714,2.475 9.73088,10.54192 16.56387,17.9265 20.15316,21.78001 21.16816,22.99383 20.5577,24.58466 -1.57626,4.10772 -4.09166,1.88903 -47.06257,-41.51112 C 285.20269,340.15788 222.11406,272.89217 196.93239,243.88612 175.42585,219.11334 154.03432,191.78451 144.46786,176.85986 l -4.52668,-7.06207 -4.22062,0.30606 c -4.01956,0.29148 -4.20882,0.44897 -3.97295,3.30606 0.13622,1.65 0.23857,21.45 0.22744,44 -0.0282,57.09134 2.37928,99.06159 10.09548,176 2.04844,20.42496 2.48336,24.34975 5.98397,54 1.10389,9.35 2.87508,24.65 3.93598,34 1.0609,9.35 2.85876,25.1 3.99525,35 1.13649,9.9 2.93415,26.1 3.99479,36 5.97092,55.7324 13.12555,112.63272 18.60949,148 2.62285,16.91546 10.33989,53.87664 15.00844,71.88377 3.95508,15.2552 5.96847,24.39545 7.84545,35.61623 0.88101,5.26679 1.88453,6.42975 4.39082,5.08842 3.26183,-1.74567 19.73288,-4.78567 29.66522,-5.4752 51.76391,-3.59354 70.56356,-4.56683 127,-6.57503 127.42895,-4.53434 231.17969,-6.4983 281,-5.3192 41.49377,0.98203 48.76228,0.97656 65.75,-0.0495 15.37787,-0.9288 16.86193,-0.28015 8.7564,3.82723 -15.30948,7.75791 -29.42359,8.66492 -163.0064,10.47522 -38.775,0.52548 -77.475,1.19927 -86,1.49732 -8.525,0.29804 -28.1,0.98596 -43.5,1.5287 -15.4,0.54274 -42.4,1.44531 -60,2.00571 -41.73959,1.32902 -100.46263,4.52161 -128.5,6.98615 -5.775,0.50764 -13.71024,0.94259 -17.63386,0.96656 l -7.13385,0.0436 -2.28681,5.75 c -1.25775,3.1625 -3.15908,7.01337 -4.22518,8.55749 -1.0661,1.54413 -7.98697,15.0007 -15.3797,29.90351 -11.88938,23.96747 -13.83062,28.60815 -16.81287,40.1925 -1.85435,7.20308 -4.49574,16.6965 -5.86976,21.0965 -5.65227,18.10012 -11.40986,39.26237 -22.03758,81.00001 -13.14467,51.6223 -20.68753,90.8225 -26.55382,138 -1.79382,14.4261 -2.80509,25.1977 -6.00856,64 -3.7912,45.9214 -5.43938,123.631 -3.19202,150.5 0.62103,7.425 1.13025,25.3125 1.13158,39.75 10e-4,14.4375 0.24978,26.25 0.55209,26.25 2.19065,0 7.16733,-4.1868 14.45034,-12.1568 11.64613,-12.7447 36.39002,-38.2061 68.11737,-70.0924 26.1267,-26.2577 29.74099,-29.1683 31.27059,-25.1822 0.82138,2.1405 -6.40234,9.7388 -58.17437,61.1906 -23.94063,23.7926 -43.30288,43.4848 -43.0272,43.7605 0.27567,0.2757 9.90901,1.5062 21.40741,2.7346 19.50963,2.0841 25.08132,2.2241 83.4062,2.0959 72.50998,-0.1594 92.04409,-1.1145 150,-7.3341 40.13777,-4.3074 59.26169,-6.6647 93.59073,-11.5361 48.75905,-6.9192 61.39912,-9.5204 140.90927,-28.9983 17.05,-4.1769 39.325,-9.6109 49.5,-12.0757 59.22992,-14.348 78.10763,-20.7737 92.70041,-31.554 9.7597,-7.21 18.07673,-19.9074 16.68133,-25.4672 -0.70841,-2.8225 -0.0955,-2.9347 4.86826,-0.8913 2.09935,0.8643 2.12531,0.1392 0.69787,-19.4935 -1.77059,-24.3523 -2.69133,-152.3007 -1.95737,-272 0.61103,-99.65025 0.49948,-119.47488 -0.73427,-130.50001 -0.80012,-7.15 -1.5794,-21.9839 -1.73174,-32.96423 l -0.27698,-19.96423 -5.52068,-6.53577 c -4.7073,-5.57283 -7.11441,-7.36704 -16.33778,-12.17782 -11.33022,-5.9097 -13.486,-7.85346 -8.72238,-7.86454 l 2.83333,-0.007 -2.80507,-1.84952 c -4.3906,-2.89495 -6.12164,-5.90536 -4.91654,-8.55026 0.82117,-1.80227 0.65123,-2.46216 -0.8804,-3.41867 -1.14293,-0.71335 -1.89799,-2.31897 -1.89799,-4.03563 0,-2.34044 2.5508,-5.37795 14.25,-16.969 12.21488,-12.10195 14.09268,-14.36972 13.14846,-15.87897 -0.69346,-1.10844 -2.36053,-1.77035 -4.5,-1.78673 -3.48093,-0.0266 -11.89846,-4.65335 -11.89846,-6.54001 0,-0.55953 1.76984,10e-4 3.93299,1.24622 2.16314,1.24495 4.24406,1.95246 4.62426,1.57226 0.38021,-0.3802 -0.93964,-2.9614 -2.93298,-5.73599 -1.99335,-2.7746 -3.62427,-5.71868 -3.62427,-6.5424 0,-3.42663 3.06116,-0.97391 9.43168,7.55702 4.35086,5.82635 7.33069,8.94512 8.35766,8.74734 0.8778,-0.16905 4.3218,-3.62768 7.65333,-7.68584 l 6.05733,-7.37849 -0.0719,-63.11886 c -0.0395,-34.71537 -0.59375,-73.91886 -1.23168,-87.11886 -3.16765,-65.5455 -4.14773,-342.21836 -1.27342,-359.48427 1.62573,-9.76573 3.50902,-14.27176 5.78193,-13.83404 1.18,0.22725 1.9773,1.71001 2.46935,4.59232 0.39967,2.34119 0.98563,4.67572 1.30214,5.18784 0.76501,1.23782 5.97392,-0.66219 17.04385,-6.21693 16.0187,-8.03797 66.20188,-29.98924 96.97973,-42.42115 29.11606,-11.76068 67.46444,-25.22804 100.49996,-35.29405 7.425,-2.26241 17.1,-5.20925 21.5,-6.54853 54.512,-16.59241 114.8449,-30.52901 172.5,-39.846605 32.7123,-5.286605 54.6279,-8.142161 82.5,-10.749532 39.1408,-3.661538 85.6978,-2.59586 94.594,2.165234 2.7165,1.453875 2.4986,5.780495 -0.344,6.829599 -1.2375,0.45671 -11.25,1.118262 -22.25,1.470114 -70.8578,2.2665 -108.9588,6.20028 -176,18.17132 -77.5897,13.85461 -182.66448,42.25388 -254.49996,68.78539 -3.575,1.32039 -10.775,3.98152 -16,5.91364 -5.225,1.93212 -12.875,4.88651 -17,6.5653 -4.125,1.6788 -11.55,4.62116 -16.5,6.53859 -4.95,1.91743 -14.175,5.53435 -20.5,8.0376 -21.23881,8.40572 -47.10589,17.56972 -54.65092,19.36133 l -7.48275,1.77683 0.65742,3 c 0.36158,1.65 1.01766,62.625 1.45796,135.5 0.82226,136.09663 2.08941,204.89197 5.65467,307 0.42047,12.04239 0.22066,22.62044 -0.57243,30.30438 -1.73955,16.85364 -0.0199,31.90293 4.53776,39.71129 3.91987,6.71571 16.8693,21.44456 25.6434,29.16715 6.47692,5.7007 9.48715,10.46655 8.40016,13.29922 -0.74433,1.93967 -4.91331,1.94783 -8.64728,0.0169 -4.06048,-2.09976 -33.82063,-35.37461 -36.89197,-41.24896 -0.64701,-1.2375 -1.49805,-2.24039 -1.8912,-2.22865 -0.39315,0.0117 -2.02929,1.87822 -3.63587,4.14773 -5.18599,7.32594 -18.47029,23.04259 -29.1723,34.51376 -5.73816,6.15056 -10.02807,11.4331 -9.53314,11.73899 0.49493,0.30588 1.45596,-0.1139 2.13563,-0.93284 2.41795,-2.91346 6.58901,-1.73554 13.18894,3.72459 8.7943,7.27552 20.84382,17.68234 23.6954,20.46501 1.31641,1.2846 3.88068,3.25478 5.69837,4.37818 1.81769,1.12339 3.57814,2.90346 3.91211,3.95571 0.50179,1.58101 2.88482,-0.43271 13.72548,-11.59843 10.11742,-10.42079 13.62707,-13.44494 15.34252,-13.22014 1.2871,0.16866 4.1632,-1.10097 6.82615,-3.01335 9.36774,-6.72741 4.65742,0.0397 -11.97795,17.20824 l -16.57984,17.11122 -0.38266,20.5 c -0.37823,20.26214 -2.55351,58.18829 -6.68192,116.5 -1.95214,27.57279 -2.18132,41.65039 -2.83271,173.99999 -0.3898,79.2 -1.00015,145.8 -1.35634,148 -0.35619,2.2 -1.11449,7.6 -1.68511,12 -0.57062,4.4 -1.26533,8.9513 -1.5438,10.1139 -0.36906,1.541 0.056,2.261 1.56796,2.6564 1.19917,0.3136 2.07426,1.3603 2.07426,2.4811 0,2.2246 1.88522,3.9467 7.36218,6.7251 2.1242,1.0776 5.46353,3.426 7.42074,5.2188 1.9572,1.7927 7.08172,5.0924 11.38782,7.3327 5.53317,2.8787 7.82926,4.6222 7.82926,5.9451 0,2.0766 1.59848,2.7199 15,6.0358 8.88482,2.1985 20.98991,4.74 47,9.8679 8.525,1.6808 17.525,3.5058 20,4.0556 14.54106,3.2301 69.94406,9.4664 121.99996,13.7325 26.499,2.1716 98.9636,2.1589 129,-0.023 62.73,-4.5561 103.3702,-10.6896 160,-24.1477 19.7998,-4.7054 25.1556,-5.8574 39.5,-8.496 8.8,-1.6187 19.825,-3.6833 24.5,-4.588 4.675,-0.9048 13.8109,-2.6657 20.3021,-3.9132 6.4911,-1.2476 12.0604,-2.5265 12.376,-2.8422 1.5689,-1.5689 -8.3743,-16.6473 -15.04,-22.8075 -1.5784,-1.4588 -2.7052,-3.1198 -2.504,-3.6912 0.5285,-1.5006 24.3569,13.6879 30.9501,19.7279 3.0713,2.8136 5.9534,5.1156 6.4047,5.1156 1.1311,0 -0.1428,-30.5169 -2.5045,-60 -2.8614,-35.7196 -7.3682,-86.6323 -9.516,-107.5 -6.3415,-61.6148 -9.8513,-85.272 -18.9159,-127.5 -1.9236,-8.961 -9.1391,-38.4526 -11.1322,-45.49999 -0.7777,-2.75 -3.2596,-11.75 -5.5154,-20 -9.9339,-36.33196 -24.1105,-81.28472 -35.9519,-114 -8.5552,-23.63627 -12.8288,-33.81367 -23.7252,-56.5 -5.3297,-11.0965 -8.1825,-18.97011 -10.2972,-28.41931 l -1.2877,-5.75423 -4.0714,0.57987 c -2.2393,0.31893 -17.3465,1.24471 -33.5715,2.05729 -16.225,0.81258 -38.05,1.95382 -48.5,2.53608 -10.45,0.58227 -34.075,1.72413 -52.5,2.53747 -29.5085,1.30261 -57.3452,2.67072 -131,6.43837 -10.725,0.54862 -27.15,1.45072 -36.5,2.00468 -9.34996,0.55395 -30.04996,1.68604 -45.99996,2.51576 -15.95,0.82971 -35.75,1.9491 -44,2.48753 -8.25,0.53842 -27.47469,1.2826 -42.72152,1.65372 -25.88011,0.62994 -27.76631,0.55806 -28.39572,-1.08216 -0.37754,-0.98385 -0.14683,-2.08285 0.52433,-2.49765 0.65918,-0.4074 9.83726,-1.7289 20.39571,-2.93667 10.55846,-1.20777 24.5972,-2.85502 31.1972,-3.66057 15.64116,-1.90904 37.59806,-4.08289 65.5,-6.48486 24.86992,-2.14095 38.46976,-3.5705 47.42956,-4.98556 3.7973,-0.59971 6.3513,-0.58656 7.1021,0.0366 0.7638,0.63386 8.2831,0.45817 21.5704,-0.50397 21.9682,-1.59075 41.361,-2.68903 88.3979,-5.00628 16.5,-0.81287 39,-1.94772 50,-2.52188 68.5482,-3.57801 84.7239,-4.26902 108.9146,-4.65272 14.803,-0.2348 27.2905,-0.65925 27.75,-0.94322 0.4595,-0.28397 0.8354,-1.88928 0.8354,-3.56735 0,-1.67808 3.1805,-10.31402 7.0679,-19.19099 12.9188,-29.50105 13.4435,-30.82328 21.0869,-53.13993 4.1886,-12.22946 5.2335,-15.63582 10.7365,-35 1.7192,-6.05 3.5443,-12.35 4.0556,-14 3.1302,-10.10103 18.1014,-70.05616 26.0944,-104.5 2.744,-11.825 5.4296,-23.3 5.9679,-25.5 1.3441,-5.49357 4.8432,-23.22088 6.6125,-33.5 8.2766,-48.08456 12.8525,-90.26459 15.5135,-143 1.5599,-30.91277 1.5427,-124.361 -0.027,-147 -2.2621,-32.62516 -6.961,-60.29176 -12.6589,-74.53439 -2.8758,-7.188373 -2.9631,-8.287251 -0.8927,-11.243102 1.0854,-1.549091 2.5779,-2.222126 4.9287,-2.222126 5.6903,0 7.9284,3.444957 12.4505,19.163838 4.0877,14.20906 6.7134,29.99524 9.2477,55.59838 1.9499,19.69904 2.1515,27.64642 2.149,84.73778 0,53.75042 -0.3211,67.86746 -2.1711,96.15285 -3.4295,52.43385 -7.5965,86.62884 -16.6482,136.61899 -1.3021,7.191 -9.0572,42.73185 -10.9598,50.22816 -1.2759,5.02653 -10.8489,44.7378 -14.5845,60.5 -13.6979,57.79716 -27.6007,100.32635 -48.8717,149.5 -6.4446,14.8985 -8.7759,17.92092 -13.3096,17.25551 -3.3292,-0.48861 -3.3613,-0.29637 -0.762,4.55338 1.114,2.0786 3.7658,8.14694 5.8929,13.48519 2.127,5.33826 6.8742,15.78092 10.5492,23.20592 13.131,26.52984 28.2599,67.03197 42.0226,112.5 1.4984,4.95 3.3071,10.8 4.0194,13 5.6547,17.46366 23.045,81.48649 25.9405,95.49999 0.7386,3.575 2.528,11.9 3.9764,18.5 7.615,34.7 11.9025,64.289 17.0257,117.5 5.2054,54.0636 5.8971,62.6106 9.5502,118 0.526,7.975 0.9622,22.6 0.9693,32.5 0.017,23.7044 -1.7611,34.5744 -5.9718,36.5023 -0.825,0.3778 -2.5548,1.237 -3.844,1.9094 -1.2892,0.6725 -6.9142,1.8908 -12.5,2.7075 -5.5858,0.8166 -15.556,2.5596 -22.156,3.8732 -6.6,1.3136 -17.175,3.3305 -23.5,4.4821 -20.762,3.7799 -37.3389,7.1704 -47.4107,9.6968 -24.3123,6.0986 -46.4643,10.7208 -68.5893,14.3118 -10.175,1.6515 -20.75,3.444 -23.5,3.9834 -2.75,0.5394 -11.525,1.6753 -19.5,2.5242 -7.975,0.849 -15.85,1.7606 -17.5,2.0259 -1.65,0.2652 -15.375,1.4693 -30.5,2.6757 -40.1402,3.2017 -113.2823,3.2076 -149.5,0.012 -13.75,-1.2132 -27.92496,-2.6528 -31.49996,-3.1992 -3.575,-0.5464 -10.55,-1.4492 -15.5,-2.0062 -10.44693,-1.1756 -15.52216,-1.942 -40,-6.0403 -23.32156,-3.9047 -40.83846,-8.022 -70.24765,-16.5116 -19.6036,-5.6589 -61.37367,-21.2924 -64.21664,-24.0346 -1.94268,-1.8738 -0.75595,-1.7691 6.80338,0.6005 9.37371,2.9384 10.37152,2.4227 3.66091,-1.892 -3.52041,-2.2634 -6.3926,-3.4988 -6.95,-2.9893 -1.92819,1.7626 -4.11124,0.7458 -9.20988,-4.2895 l -5.22276,-5.1579 -0.68206,2.7176 c -0.4015,1.5996 -1.19776,2.5196 -1.93577,2.2364 -0.68954,-0.2646 -3.37236,1.9729 -5.96181,4.9723 -12.57087,14.5608 -32.11064,24.1357 -69.03772,33.8301 -3.3,0.8664 -8.475,2.2465 -11.5,3.0671 -3.025,0.8205 -11.35,2.8689 -18.5,4.5519 -7.15,1.683 -26.725,6.4324 -43.5,10.5543 -39.64818,9.742 -62.0537,15.1686 -69.5,16.8328 -3.3,0.7376 -9.15,2.0491 -13,2.9146 -16.04088,3.606 -42.9576,8.5459 -60.62928,11.1271 -50.48874,7.3745 -91.16921,12.1255 -158.87072,18.5543 -5.775,0.5483 -37.05,1.4233 -69.5,1.9444 -64.85791,1.0414 -63.75092,1.0423 -88,-0.072 z M 788.91233,850.65991 c 0.0563,-1.76825 -0.42682,-2.75 -1.35337,-2.75 -2.34143,0 -2.53597,1.29826 -1.28635,8.58444 l 1.18605,6.91556 0.68303,-5 c 0.37567,-2.75 0.72246,-6.2375 0.77064,-7.75 z m 138.45549,480.80869 c -3.29848,-1.4354 -8.02646,-6.7751 -20.36788,-23.003 -13.16311,-17.3084 -26.48412,-33.8188 -33.93156,-42.0557 -7.19904,-7.9621 -13.06844,-17.6056 -13.06844,-21.4715 0,-2.864 4.77619,-2.6905 10.78324,0.3916 8.39941,4.3097 20.86143,18.6834 53.65043,61.8805 3.25661,4.2904 6.24325,7.9997 6.63699,8.2431 0.99729,0.6163 19.02589,-15.5667 33.70827,-30.2576 6.75341,-6.7574 13.06578,-12.2861 14.02749,-12.2861 2.4463,0 6.18467,2.8057 7.13774,5.357 1.13019,3.0255 -0.24473,5.981 -5.69807,12.2483 -6.23861,7.1699 -40.48205,38.4008 -44.56354,40.6431 -3.76545,2.0687 -4.23377,2.0862 -8.31467,0.3103 z m -488.34995,-49.5408 c -3.04738,-3.0473 -1.27638,-6.1283 10.35704,-18.0179 19.01574,-19.4344 31.64194,-35.8284 60.99199,-79.1923 6.95835,-10.2808 12.88997,-19.3137 13.18138,-20.0731 0.39674,-1.0339 -1.90926,-1.941 -9.17997,-3.6111 -5.3404,-1.2268 -10.95289,-3.1156 -12.47221,-4.1974 l -2.7624,-1.967 -3.81688,4.6042 c -3.80819,4.5938 -7.89703,7.4367 -10.69579,7.4367 -2.46574,0 -4.62109,-2.9576 -4.62109,-6.3411 0,-2.5734 1.95365,-5.5748 10,-15.3634 5.5,-6.6908 10,-12.5747 10,-13.0753 0,-0.5006 0.96014,-1.7675 2.13364,-2.8152 1.1735,-1.0478 7.06809,-7.98 13.09909,-15.405 13.68171,-16.8441 23.51279,-26 27.91731,-26 5.91499,0 -2.27721,15.6778 -18.68379,35.7561 -6.85644,8.3909 -12.46625,15.9074 -12.46625,16.7033 0,0.796 1.16787,2.2557 2.59526,3.2439 1.4274,0.9882 3.44948,2.5813 4.49351,3.5402 1.79338,1.6472 8.38568,3.6785 12.11188,3.7321 1.63742,0.024 5.59978,-5.7085 29.27877,-42.3552 4.57715,-7.0839 8.92925,-13.2645 9.67133,-13.7347 2.29477,-1.4543 6.45839,-0.9751 8.19426,0.943 3.72073,4.1114 2.74759,6.0156 -23.08523,45.1713 -7.97225,12.0838 -8.22701,12.6513 -7.65188,17.0434 0.67774,5.1756 -0.50677,6.7795 -5.80754,7.8636 -2.79569,0.5718 -4.66873,2.865 -15.24384,18.6637 -32.79759,48.998 -53.69767,76.1857 -70.53751,91.7581 -8.6838,8.0302 -13.16159,9.5286 -17.00108,5.6891 z m 70.98207,-136.0179 c -0.825,-0.5332 -1.95,-0.9694 -2.5,-0.9694 -0.55,0 -0.325,0.4362 0.5,0.9694 0.825,0.5332 1.95,0.9694 2.5,0.9694 0.55,0 0.325,-0.4362 -0.5,-0.9694 z m 465.91227,108.3307 c -12.08636,-11.9245 -14.12095,-15.2037 -11.94998,-19.2602 1.25162,-2.3387 4.97545,-3.5539 8.31889,-2.7148 1.25465,0.3149 6.67088,4.6924 12.03608,9.7279 13.1677,12.3583 15.1572,16.5329 10.22819,21.4619 -4.18837,4.1883 -5.9121,3.3359 -18.63318,-9.2148 z m -366.09172,-10.6622 c -5.55311,-1.5706 -11.26024,-5.6843 -13.26526,-9.5616 -0.99591,-1.9259 -1.34719,-5.2386 -1.13446,-10.6983 0.28656,-7.3543 0.69495,-8.6574 5.82657,-18.5914 7.70255,-14.9109 16.95529,-34.8091 20.68549,-44.4846 1.98875,-5.1585 4.604,-9.7636 7.09884,-12.5 l 3.95006,-4.3326 2.12417,2.5 c 1.84264,2.1687 2.05297,3.3615 1.58697,9 -0.56692,6.8596 -3.12439,13.8016 -11.74408,31.8785 -2.72187,5.7082 -4.94885,10.7508 -4.94885,11.2057 0,0.4549 1.85658,0.172 4.12573,-0.6286 6.48839,-2.2892 15.90651,-1.913 19.88444,0.7944 6.8987,4.6952 9.63695,11.9478 7.93274,21.0108 -1.08,5.7434 -6.50849,14.5433 -11.16014,18.0913 -8.39404,6.4025 -21.3286,9.0412 -30.96222,6.3164 z m 20.43702,-15.6169 c 7.57272,-4.8025 11.52104,-15.4942 6.67883,-18.0856 -4.30807,-2.3056 -22.29439,4.4908 -23.5562,8.901 -0.25696,0.8982 -1.36729,3.4247 -2.4674,5.6145 -1.88823,3.7585 -1.90308,4.0524 -0.26537,5.25 0.98732,0.7219 4.58428,1.2685 8.34792,1.2685 5.60426,0 7.32231,-0.4498 11.26222,-2.9484 z m 382.20649,4.7221 c -3.3197,-2.909 -8.3883,-7.0159 -11.2636,-9.1265 -5.10456,-3.7471 -10.20046,-10.7089 -10.20046,-13.9354 0,-0.8868 0.76262,-2.0392 1.69472,-2.5608 1.54363,-0.8639 1.41468,-1.5592 -1.44647,-7.7997 -5.61234,-12.2412 -5.02124,-21.5814 1.64963,-26.0667 8.16168,-5.4876 19.57568,-1.8808 45.10208,14.2521 6.325,3.9975 13.4048,7.7773 15.733,8.3997 4.62,1.235 6.267,3.3178 6.267,7.9253 0,3.3962 -3.8981,7.1525 -7.3849,7.1163 -3.3069,-0.034 -9.8531,-3.3521 -22.8102,-11.5607 -12.73,-8.0649 -23.1473,-13.4152 -26.1223,-13.4165 -1.4066,-6e-4 -1.6736,0.5078 -1.1813,2.2492 1.9701,6.969 10.8781,21.2226 20.6816,33.0924 2.654,3.2133 5.1071,6.965 5.4515,8.3371 0.9262,3.6901 -2.4458,7.7471 -6.7337,8.1018 -2.8706,0.2374 -4.3416,-0.5431 -9.4366,-5.0076 z m -460.31068,-25.5237 c -7.30258,-6.1393 -5.84598,-17.5808 4.08346,-32.0755 4.99341,-7.2892 12.48327,-10.4345 14.75218,-6.195 1.47588,2.7577 0.41048,6.4596 -4.03503,14.0205 -7.6637,13.0343 -7.66526,15.5853 -0.007,11.7964 5.87542,-2.9069 14.93925,-12.0027 18.87891,-18.9454 1.76304,-3.1069 3.91032,-5.9194 4.77172,-6.25 4.24865,-1.6304 7.85152,0.3551 9.00835,4.9643 1.28952,5.1378 -7.96768,18.4958 -18.61467,26.8606 -11.44098,8.9885 -22.43307,11.2085 -28.83769,5.8241 z m 374.83037,-8.0621 c -1.63897,-1.3271 -2.05218,-2.3969 -1.54413,-3.9977 0.83342,-2.6258 4.99166,-3.9071 7.07337,-2.1794 2.10286,1.7452 1.84682,5.7263 -0.44725,6.954 -2.50274,1.3394 -2.46046,1.3459 -5.08199,-0.7769 z m 137.81501,-4.0178 c -0.9356,-0.3686 -3.6396,-2.9201 -6.0088,-5.6701 -6.2676,-7.2749 -22.7174,-22.7358 -43.6225,-41 -14.225,-12.428 -19.42169,-17.6496 -23.27744,-23.3891 -2.73019,-4.0639 -4.79959,-7.8889 -4.59867,-8.5 0.74543,-2.2669 5.0456,-1.6724 12.02709,1.6629 5.56542,2.6587 11.42822,7.1871 26.05332,20.1233 10.3795,9.181 19.0211,16.5433 19.2036,16.3608 0.1825,-0.1824 -0.3413,-4.1401 -1.164,-8.7948 -2.6321,-14.8922 -2.7909,-22.8006 -0.5716,-28.4631 2.6139,-6.6693 4.6056,-6.5555 8.7493,0.5 2.2135,3.7691 3.4339,7.3883 3.8776,11.5 0.7926,7.3444 4.0116,24.3117 4.753,25.0531 0.2971,0.297 2.5066,-0.4934 4.9102,-1.7565 4.6402,-2.4385 8.1668,-2.6155 33.262,-1.6695 9.3302,0.3517 10.0041,0.5232 11.8679,3.0193 1.5645,2.0953 1.7821,3.2279 1.045,5.4391 -1.6151,4.8455 -5.2138,6.6695 -12.9561,6.5666 -3.7668,-0.05 -8.4207,-0.5547 -10.3421,-1.1215 -8.0201,-2.366 -17.9273,-0.2109 -22.4646,4.8867 -2.1637,2.4309 -2.3529,1.9794 4.208,10.0405 3.0602,3.7599 4.25,6.1331 4.25,8.477 0,4.7349 -4.9958,8.3918 -9.2012,6.7353 z m -792.72203,-46.759 c -7.40883,-6.2341 -1.92077,-14.7702 28.67449,-44.6 9.20133,-8.9711 22.12237,-21.5727 28.71341,-28.0036 6.59104,-6.4309 11.72289,-11.9533 11.4041,-12.2721 -0.3188,-0.3188 -3.45717,0.099 -6.97418,0.9277 -3.93076,0.9266 -11.3392,1.513 -19.22794,1.5221 -20.84609,0.024 -34.0021,-4.291 -43.26063,-14.1892 -12.49828,-13.3616 -13.58753,-32.1435 -3.1154,-53.71884 16.07096,-33.11032 60.70237,-61.86022 107.60309,-69.3139 11.63959,-1.84982 14.41636,-1.97953 21.2026,-0.99043 12.96072,1.88905 18.90373,6.20918 18.90373,13.74166 0,4.74521 -1.92081,8.23604 -7.21916,13.11989 -10.05659,9.26984 -30.31576,18.25153 -49.28084,21.84814 -10.4418,1.98022 -12.83073,1.9145 -14.93515,-0.41085 -3.1623,-3.49431 -1.24464,-5.79321 6.74473,-8.08563 15.40711,-4.42082 24.0648,-8.06443 38.97529,-16.40285 6.43794,-3.6003 12.33713,-8.29451 11.48923,-9.14242 -0.24666,-0.24666 -2.93,-0.9072 -5.96298,-1.46788 -16.07014,-2.97073 -54.90077,8.59063 -76.81112,22.8696 -25.01872,16.30469 -39.9939,34.93805 -43.64761,54.30991 -4.2643,22.6093 9.37639,34.7724 39.06135,34.8302 9.15741,0.018 26.58626,-2.7286 26.58626,-4.1895 0,-1.192 -7.88152,-4.5935 -12.25395,-5.2885 -9.87664,-1.5699 -10.46971,-13.5502 -0.66731,-13.4802 1.88169,0.014 5.44626,0.4942 7.92126,1.0682 6.03347,1.3994 24.90789,-0.431 36.04775,-3.4959 9.04581,-2.4887 12.01594,-2.2147 13.88688,1.2812 0.58595,1.0948 1.06537,2.9206 1.06537,4.0572 0,2.7637 -40.57288,45.5763 -63.53351,67.0406 -9.69332,9.0616 -21.16599,20.1649 -25.49483,24.6739 -7.26161,7.5639 -7.82884,8.4556 -7.33081,11.5246 0.63415,3.9078 -1.69354,7.4026 -7.94814,11.9334 -4.91442,3.56 -6.68565,3.6107 -10.61598,0.3035 z m 835.28793,-9.4424 c -8.4289,-2.5982 -17.9959,-12.3798 -20.331,-20.7871 -1.3607,-4.8989 -1.3038,-12.5479 0.1287,-17.3294 1.5363,-5.1278 6.7906,-10.4332 11.1409,-11.2493 12.5367,-2.3519 18.0582,13.7438 9.1951,26.8043 -1.3741,2.0249 -2.4984,4.0288 -2.4984,4.4531 0,1.7065 7.9662,5.1397 11.926,5.1397 9.3839,0 16.608,-6.8244 18.525,-17.5 0.9345,-5.2042 3.0922,-7.5 7.049,-7.5 6.0731,0 8.3358,5.1889 6.0883,13.9616 -2.5364,9.9008 -7.3993,16.079 -16.9962,21.5934 -4.0875,2.3487 -6.2605,2.8669 -13,3.1001 -4.4507,0.154 -9.503,-0.1549 -11.2274,-0.6864 z m -686.00589,-28.519 c -1.97149,-1.9715 -2.40492,-3.1631 -1.90969,-5.25 0.35235,-1.4848 1.40795,-3.1446 2.34578,-3.6884 2.64722,-1.535 15.69867,-15.1964 17.20269,-18.0067 1.19324,-2.2296 1.11351,-2.7642 -0.70966,-4.7582 -4.72799,-5.171 -7.73706,-16.3223 -5.32836,-19.7464 0.91361,-1.2987 1.28901,-1.2238 2.79783,0.5584 0.95845,1.1321 4.10514,3.8121 6.99264,5.9555 2.8875,2.1434 5.25,4.2921 5.25,4.7749 0,1.858 2.14321,-0.2624 14.94798,-14.7888 15.80081,-17.9253 20.00382,-21.9331 26.40325,-25.1771 8.20234,-4.1579 9.74877,-1.4012 4.74326,8.4556 -1.59803,3.1468 -4.34536,7.0715 -6.10517,8.7215 -1.75982,1.65 -8.33527,8.9408 -14.61211,16.2019 -6.27685,7.261 -11.85452,13.4751 -12.39483,13.809 -0.54031,0.3339 -0.98238,0.9583 -0.98238,1.3876 0,1.0445 4.62303,3.1015 6.97033,3.1015 2.57589,0 8.02967,4.7655 8.02967,7.0163 0,1.0112 -1.2375,2.8185 -2.75,4.0162 -2.27817,1.804 -3.62887,2.0885 -7.8724,1.658 -2.81731,-0.2858 -6.96722,-1.4608 -9.222,-2.6111 l -4.09961,-2.0915 -7.71911,9.0759 c -7.38837,8.687 -14.06283,13.9362 -17.72019,13.9362 -0.93918,0 -2.85524,-1.1476 -4.25792,-2.5503 z m 725.64609,-23.1195 c -8.0091,-4.125 -11.5154,-10.1604 -11.4752,-19.7518 0.022,-5.2977 0.5772,-8.1159 2.2061,-11.2026 2.3057,-4.369 6.9264,-8.8164 10.2588,-9.8741 1.103,-0.3501 2.0054,-1.2333 2.0054,-1.9628 0,-0.7295 -8.2125,-9.1251 -18.25,-18.6568 -19.1708,-18.2049 -23.1593,-22.92 -24.234,-28.64862 -0.9904,-5.27929 0.4219,-5.87452 7.5837,-3.19619 5.5435,2.07314 8.3255,4.34207 25.8068,21.04731 10.7764,10.2981 24.5358,23.7169 30.5764,29.8196 6.0407,6.1027 11.3325,11.0958 11.7598,11.0958 0.4272,0 1.7849,-2.1209 3.017,-4.713 2.914,-6.1304 6.2249,-8.1225 10.2742,-6.1816 4.1833,2.005 5.1989,5.6871 3.091,11.2066 -6.4503,16.8899 -25.1756,32.2134 -40.7857,33.3762 -5.5316,0.4121 -7.0392,0.1117 -11.8343,-2.358 z m 15.5636,-12.7962 c 2.7123,-0.8064 6.4624,-2.7452 8.3335,-4.3086 l 3.4019,-2.8425 -4.6264,-3.791 c -7.6887,-6.3003 -15.3638,-6.7937 -18.7706,-1.2068 -1.0447,1.7132 -1.9011,3.9247 -1.9032,4.9146 -0.01,2.7921 2.7751,7.4978 4.7327,8.0084 3.0424,0.7934 3.7752,0.7292 8.8321,-0.7741 z m -783.91347,7.6373 c -3.26164,-3.6041 -2.08189,-6.4634 6.75363,-16.3682 9.56697,-10.7249 14.18312,-14.5714 18.52997,-15.4408 4.87128,-0.9743 4.91613,1.6822 0.18529,10.9741 -5.52363,10.849 -16.34644,22.6636 -20.76112,22.6636 -1.6875,0 -3.79294,-0.8179 -4.70777,-1.8287 z m 854.16377,-46.4213 c -3.9312,-3.143 -2.9318,-8.3742 2.9899,-15.6496 7.0504,-8.6621 6.7889,-7.9913 3.5698,-9.1585 -1.5832,-0.574 -4.6785,-3.3347 -6.8785,-6.1348 -7.1161,-9.05723 -30.797,-32.44704 -38.25,-37.77994 -3.9875,-2.85319 -7.265,-5.48901 -7.2833,-5.85738 -0.018,-0.36837 -0.9005,-1.71021 -1.9605,-2.98186 l -1.9273,-2.31208 -7.2971,7.56208 c -6.3877,6.61962 -7.7386,7.56209 -10.8395,7.56209 -4.2907,0 -5.9423,-1.46354 -5.9423,-5.26574 0,-3.7965 1.3615,-6.19747 7.0804,-12.48634 2.6269,-2.88865 9.1325,-10.83968 14.4569,-17.66897 10.566,-13.55229 12.8963,-15.13257 17.3893,-11.79299 1.7336,1.28851 2.671,3.04199 2.8724,5.37301 0.2544,2.9442 -0.6031,4.5905 -5.75,11.03826 -3.3269,4.16788 -6.049,8.01967 -6.049,8.55953 0,0.53985 1.5953,1.24044 3.5452,1.55686 7.4334,1.20628 25.8716,17.12627 45.0871,38.92929 5.7022,6.47011 10.3677,12.45968 10.3677,13.31018 0,1.0351 0.4571,1.2819 1.3829,0.7466 1.8783,-1.0862 10.7269,-11.85258 13.8759,-16.88324 l 2.5561,-4.08356 -10.3689,-5.8873 c -11.2141,-6.3672 -14.3119,-9.85957 -13.0842,-14.75107 0.4957,-1.97497 1.4797,-2.76177 4.0593,-3.2457 4.0032,-0.751 6.7165,-0.0164 11.809,3.19727 4.4828,2.82886 6.2805,3.03671 5.2235,0.60391 -5.4262,-12.48875 -6.6731,-25.79612 -2.8918,-30.86341 5.2223,-6.99846 12.9751,-9.01156 22.5788,-5.86286 6.4476,2.11393 18.874,8.23216 26.1002,12.85064 2.8926,1.84872 6.6345,3.66238 8.3154,4.03036 6.6717,1.46054 8.3113,11.06105 2.4102,14.11265 -4.3101,2.22883 -5.8408,1.87703 -13.4664,-3.09496 -10.6809,-6.96412 -26.1404,-14.46766 -30.3038,-14.70856 l -3.6962,-0.21386 0.2084,4.44256 c 0.2324,4.95264 0.5635,5.91874 7.4375,21.70485 2.6697,6.13107 4.8541,12.25789 4.8541,13.61514 0,3.17306 -3.5823,7.73745 -6.0726,7.73745 -1.435,0 -1.9284,0.70248 -1.9311,2.75 -0.01,4.49666 -0.4348,5.07574 -27.6815,37.39779 -4.6347,5.4981 -8.4415,9.0493 -10.4516,9.75 -3.956,1.3791 -4.1402,1.3746 -6.0444,-0.1478 z m -218.8589,-11.5012 c -12.2112,-12.8288 -28.9025,-30.13816 -60.02594,-62.24879 -63.74785,-65.76986 -96.77979,-101.69357 -115.67061,-125.79698 -7.5866,-9.67998 -7.55193,-12.4267 0.0465,-3.68455 10.07763,11.59453 27.32335,30.2751 51.68161,55.98153 13.55004,14.3 33.60766,35.66505 44.5725,47.47789 10.96485,11.81284 26.01108,27.97731 33.43608,35.92104 7.425,7.94372 21.07507,22.54879 30.33349,32.45566 18.23497,19.5123 24.21357,26.4316 23.47557,27.1696 -0.2604,0.2604 -3.7925,-3.0135 -7.8492,-7.2754 z m -583.98735,-6.9529 c -3.82518,-2.6364 -4.90622,-4.4868 -4.94071,-8.457 -0.0249,-2.8703 0.62292,-4.212 2.99925,-6.2116 5.33937,-4.49275 12.4439,-5.62535 19.46895,-3.1037 3.86646,1.3879 4.1608,1.3363 8.81645,-1.54389 7.86233,-4.86404 11.12051,-3.35458 8.14268,3.77239 -2.68579,6.428 -6.23024,9.995 -13.59046,13.6772 -8.28188,4.1433 -16.52462,4.8796 -20.89616,1.8666 z M 692.31153,887.15991 c 2.998,-3.48649 48.23163,-48.04012 48.50042,-47.77132 0.19252,0.19251 -0.0927,1.17723 -0.63376,2.18826 -1.51176,2.82475 -45.93105,46.33306 -47.30319,46.33306 -0.66462,0 -0.91818,-0.3375 -0.56347,-0.75 z m 134.14101,-116 c 2.29608,-9.43235 33.67903,-49.58586 60.55479,-77.47797 6.93112,-7.19323 9.11083,-8.89077 11.06228,-8.61521 4.63129,0.65397 3.51988,3.99919 -4.80883,14.47408 -4.31587,5.428 -12.05918,15.2691 -17.20734,21.8691 -24.57962,31.51133 -43.89181,52.5 -48.30653,52.5 -1.63793,0 -1.85271,-0.45632 -1.29437,-2.75 z m -444.0563,-92.603 c -10.25301,-3.37195 -19.34697,-13.19559 -23.59519,-25.48842 -2.0166,-5.83531 -2.29445,-8.51319 -2.24722,-21.65858 0.0537,-14.95692 0.95895,-19.7218 5.79421,-30.5 0.44997,-1.00301 -1.7507,-4.31629 -6.64197,-10 -8.34031,-9.69154 -38.58537,-47.6761 -46.45613,-58.34392 -2.8875,-3.91364 -5.29981,-8.02479 -5.36069,-9.1359 -0.26064,-4.75675 0.35601,-7.12728 2.28138,-8.77018 2.11563,-1.80525 6.38908,-2.46474 5.3788,-0.83007 -0.3127,0.50595 0.46038,1.74345 1.71795,2.75 1.25758,1.00654 3.38622,3.40507 4.73032,5.33007 1.3441,1.925 8.50253,11.13901 15.90761,20.47558 15.32575,19.32317 14.28436,19.1596 15.53784,2.4405 2.25717,-30.10645 -6.90491,-60.27766 -19.44547,-64.0349 -3.47668,-1.04164 -4.27977,-0.90594 -8.18587,1.38318 -11.41759,6.69116 -20.27994,27.40427 -27.40277,64.04584 -1.4102,7.25439 -3.46187,17.6898 -4.55927,23.1898 -2.40143,12.03552 -3.7256,37.84071 -1.9966,38.90929 2.09972,1.2977 1.30563,3.75237 -1.10323,3.41026 -7.74143,-1.09946 -11.24237,-36.59598 -6.34369,-64.31955 7.5178,-42.54619 20.36432,-69.72528 36.83626,-77.93359 19.17313,-9.55437 38.65845,9.11316 43.77062,41.93359 2.00334,12.86154 1.75915,12.47401 4.68153,7.42976 12.46259,-21.51133 25.44359,-35.6189 39.17841,-42.57854 4.87851,-2.47202 6.75734,-2.85053 14.12687,-2.84604 10.59062,0.006 14.27479,1.63933 22.54907,9.99409 17.45165,17.62138 24.98646,54.1796 19.50615,94.64198 -5.63931,41.63625 -21.00813,74.47732 -43.12509,92.15239 -10.24287,8.18574 -25.28866,11.72273 -35.53383,8.35336 z m 21.80552,-15.24927 c 16.34004,-8.28012 32.77504,-35.96159 40.32698,-67.92273 2.85231,-12.07148 2.89186,-12.475 1.22277,-12.475 -0.68664,0 -4.86534,-1.83394 -9.286,-4.07542 -12.51976,-6.34811 -23.17971,-6.42994 -36.18433,-0.27777 -6.09359,2.88274 -20.28124,15.61685 -20.28124,18.20341 0,0.87779 2.67185,4.30808 5.93745,7.62287 7.2554,7.36473 8.27779,10.40258 4.70378,13.97659 -3.6983,3.6983 -6.08563,3.18901 -12.2122,-2.60524 -2.99818,-2.83556 -5.60406,-4.97306 -5.79083,-4.75 -0.18678,0.22306 -1.08178,3.42304 -1.9889,7.11108 -5.29695,21.53562 2.63269,44.37736 16.61433,47.85843 4.69438,1.16878 11.47712,0.10112 16.93819,-2.66622 z m -26.60296,-84.1584 c 8.65137,-8.49755 18.09517,-14.14318 27.95344,-16.71094 6.662,-1.73523 17.86921,-1.95887 24.26325,-0.48418 3.35958,0.77484 13.59043,5.07549 18.29367,7.68995 1.1546,0.64182 1.64933,-17.9631 0.78545,-29.53784 -0.4762,-6.38035 -1.78145,-15.22216 -2.90057,-19.64847 -4.13686,-16.36207 -13.54128,-30.92318 -21.71405,-33.62044 -4.26592,-1.40788 -10.08948,-0.57301 -15.62182,2.23957 -5.96001,3.03001 -18.33455,15.89668 -25.01261,26.00736 -7.78484,11.78639 -17.76672,31.50807 -21.16952,41.82566 -1.54184,4.675 -3.67784,9.48023 -4.74666,10.67828 -1.68095,1.8842 -1.76012,2.43269 -0.58638,4.06269 1.31557,1.82695 12.25675,15.21875 12.4558,15.24566 0.0544,0.007 3.65437,-3.47893 8,-7.7473 z m 888.4011,47.58572 c -5.2057,-1.47926 -9.5206,-5.20322 -12.0262,-10.37914 -3.1492,-6.50542 -2.4482,-15.61041 1.8572,-24.12306 1.7183,-3.39744 3.5843,-6.46149 4.1466,-6.80902 1.8981,-1.17307 1.0396,-2.51383 -1.6096,-2.51383 -2.7947,0 -9.368,3.55133 -9.368,5.06124 0,1.28495 -6.9398,4.64924 -11.2636,5.4604 -2.773,0.52021 -4.7873,0.14805 -8.237,-1.52191 -10.532,-5.09846 -11.1617,-18.51943 -1.5464,-32.95587 1.6324,-2.45088 2.8494,-4.57476 2.7044,-4.71974 -0.1449,-0.14499 -5.3566,0.62278 -11.5814,1.70614 -17.9726,3.12792 -25.6228,2.31026 -29.4453,-3.14713 -4.8302,-6.89603 0.2447,-15.8483 20.3416,-35.88313 18.9948,-18.93618 43.7073,-41.77018 48.4939,-44.80761 14.467,-9.18033 23.821,-11.27674 17.6245,-3.95 -1.0502,1.24169 -4.3127,5.43612 -7.25,9.32095 -2.9374,3.88484 -15.9157,17.01467 -28.8407,29.1774 -23.8217,22.41674 -36.7426,35.85002 -35.5906,37.00194 1.0299,1.02993 17.7916,-1.69062 29.7561,-4.82964 12.9424,-3.39556 16.8861,-3.61851 19.1795,-1.0843 3.3949,3.7513 2.1501,7.57721 -5.595,17.19693 -8.408,10.44301 -12.75,18.01321 -12.75,22.22934 0,2.64154 0.2544,2.89444 2.25,2.23694 1.2375,-0.40773 7.2,-1.07647 13.25,-1.4861 6.05,-0.40963 13.315,-1.44016 16.1444,-2.29006 3.4728,-1.04315 7.2097,-1.36636 11.5,-0.99466 9.9283,0.86016 13.8817,3.56924 18.5555,12.71516 5.1956,10.16697 2.2041,23.87215 -7.2071,33.0188 -6.7023,6.51388 -15.0352,8.77331 -23.4928,6.36996 z m 13.9616,-16.57505 c 5.4912,-5.30142 5.9455,-7.63161 1.8213,-9.33994 -1.7975,-0.74455 -4.931,-2.85591 -6.9632,-4.69191 l -3.695,-3.33817 -1.6456,2.51162 c -2.3096,3.52482 -4.516,11.32298 -3.7865,13.38242 2.2838,6.44709 8.4585,7.0858 14.269,1.47598 z m -250.6917,-66.95312 c -2.6716,-0.51605 -6.2699,-4.80963 -6.2699,-7.4814 0,-5.41932 3.7079,-9.18238 25,-25.37212 8.525,-6.48209 17.75,-13.6563 20.5,-15.94268 2.75,-2.28639 14.3152,-11.88449 25.7005,-21.32913 11.3852,-9.44463 21.0604,-17.81538 21.5005,-18.60166 0.44,-0.78629 1.9345,-2.02367 3.321,-2.74975 1.3866,-0.72608 6.939,-4.92014 12.3387,-9.32014 l 9.8177,-8 -13.3392,-0.59599 c -10.2415,-0.45758 -14.6164,-1.09608 -18.8392,-2.74949 -3.025,-1.18443 -6.1827,-2.15374 -7.0171,-2.15402 -0.8343,-2.7e-4 -6.4593,4.9657 -12.5,11.03551 -10.2023,10.25159 -11.2304,11.01568 -14.4647,10.75 -2.7252,-0.22386 -3.6799,-0.85309 -4.3936,-2.89558 -1.6176,-4.62913 0.2243,-7.81027 10.7527,-18.57066 l 10.3009,-10.52799 -1.8391,-3.60733 c -1.9227,-3.77124 -2.4369,-13.82472 -0.9045,-17.68445 1.0148,-2.55613 -3.9515,-9.812 -8.9346,-13.05352 -10.8428,-7.05327 -34.1733,-3.94802 -46.603,6.20278 -2.2566,1.84291 -5.0193,3.35074 -6.1392,3.35074 -3.3312,0 -6.3678,-3.1651 -6.4696,-6.74326 -0.078,-2.73903 1.1802,-4.55458 8.31,-11.99221 4.621,-4.82049 8.8518,-8.76453 9.4018,-8.76453 0.55,0 1.1438,1.0125 1.3196,2.25 0.3886,2.73619 0.01,2.73109 10.8514,0.14434 16.6136,-3.96225 30.5101,-1.15122 40.7999,8.25308 6.111,5.58509 12.5459,15.35977 12.4973,18.98339 -0.017,1.30305 -0.6925,3.2427 -1.5,4.31032 -1.5344,2.02866 -2.0192,8.10031 -0.7113,8.90862 0.4163,0.25729 6.8288,-5.10556 14.25,-11.91742 7.4212,-6.81187 16.6431,-14.29184 20.4931,-16.62214 3.85,-2.3303 9.3744,-6.00398 12.2765,-8.16371 8.6141,-6.41067 8.1971,-4.56409 -2.6495,11.73146 -5.3121,7.98084 -9.1595,12.20356 -20.0327,21.98711 l -13.4578,12.10916 3.9317,1.18604 c 6.3253,1.90806 22.9897,1.59117 33.8515,-0.64373 11.0457,-2.27275 23.355,-7.58123 27.9134,-12.03794 1.7189,-1.68054 4.2596,-3.28689 5.6461,-3.56967 1.3864,-0.28279 4.9799,-1.65796 7.9854,-3.05594 3.0056,-1.39798 7.8046,-2.78328 10.6644,-3.07844 4.6346,-0.47833 5.4808,-0.25562 7.7854,2.04895 3.9653,3.96536 3.6062,9.45387 -0.9238,14.11858 -4.2286,4.35424 -14.3296,11.01967 -19.0709,12.58445 -5.2211,1.7231 -6.4448,0.55838 -1.8748,-1.78437 5.7045,-2.92426 14.9606,-13.24214 11.8796,-13.24214 -1.0757,0 -14.8851,8.30975 -25.9245,15.59992 -10.8723,7.17985 -30.4,21.98987 -38.6617,29.32157 -4.2362,3.75924 -4.248,3.78887 -1.9958,4.99424 1.2462,0.66692 9.4974,1.78223 18.3361,2.47848 l 16.0704,1.2659 2.33,-2.33005 c 3.4613,-3.46127 7.6107,-3.05695 12.3235,1.20084 3.4403,3.10804 3.9903,4.23704 4.5927,9.42738 0.4455,3.8385 1.5255,7.03669 3.0946,9.16338 3.1524,4.27283 3.1196,8.17515 -0.09,10.69968 -1.375,1.08158 -2.5,2.89736 -2.5,4.03507 0,4.17425 -4.1924,13.10064 -7.9914,17.01525 -7.0246,7.23845 -16.016,7.82681 -23.0125,1.50587 -4.8987,-4.42569 -6.375,-8.84397 -5.7702,-17.26901 0.5509,-7.67346 3.121,-13.35978 8.8451,-19.56976 2.161,-2.34433 3.929,-4.50737 3.929,-4.80675 0,-1.11133 -26.55,-3.73185 -30.384,-2.99894 -1.8439,0.35248 -3.0356,1.96007 -5.1622,6.96395 -5.1504,12.11839 -17.3539,26.37516 -34.5194,40.32755 -12.519,10.17563 -23.1425,17.04445 -32.144,20.78327 -9.691,4.02525 -24.4059,6.05644 -32.5205,4.48904 z m 26.6565,-16.43414 c 11.26,-4.08091 31.0277,-18.76562 45.1273,-33.52353 7.45,-7.7978 15.6714,-18.9474 14.6929,-19.92591 -0.2767,-0.27678 -4.7205,3.04027 -9.8749,7.37122 -17.2047,14.45603 -42.3111,34.64425 -51.14,41.12193 -11.8686,8.70802 -11.6508,9.6118 1.1947,4.95629 z m 116.7031,-25.80077 c 2.176,-4.53483 3.6977,-14.04581 2.6741,-16.7133 -0.4421,-1.15193 -1.3414,-0.74206 -4.0241,1.83393 -8.0226,7.70357 -10.226,20.41288 -3.4018,19.6215 1.9862,-0.23033 3.1389,-1.38065 4.7518,-4.74213 z m 105.6412,29.97421 c -4.5097,-2.04713 -8.2607,-6.96374 -8.267,-10.83584 -0.01,-5.90024 5.6328,-11.20034 11.9236,-11.20034 3.7643,0 6.6022,3.75417 5.6639,7.49271 -1.3861,5.52268 2.8677,1.69922 5.9004,-5.30347 2.7662,-6.38727 7.5639,-8.13371 11.5084,-4.18924 2.5446,2.54456 2.5277,5.59867 -0.064,11.66709 -5.1775,12.12139 -16.075,17.17642 -26.665,12.36909 z m -793.88981,-18.8281 c -2.7953,-1.53073 -14.29862,-14.12573 -30.67303,-33.58394 -6.22054,-7.39206 -8.70782,-12.17541 -8.70782,-16.74626 0,-2.55792 0.34821,-2.87788 3.13197,-2.87788 4.72742,0 8.95495,3.17111 17.03608,12.77892 4.03257,4.7944 11.9191,13.97904 17.52561,20.4103 7.37442,8.45925 10.37887,12.68048 10.86335,15.26296 1.16889,6.23074 -2.76228,8.26822 -9.17616,4.7559 z m 20.30056,-36.80867 c -2.65022,-1.3791 -6.83859,-4.61565 -9.30749,-7.19234 -4.24268,-4.4279 -12.37392,-18.78893 -12.37392,-21.85425 0,-0.77857 -0.69164,-1.681 -1.53699,-2.00539 -1.95973,-0.75202 -4.46301,-5.55472 -4.46301,-8.56258 0,-1.27296 0.9,-3.99367 2,-6.04603 1.1,-2.05237 2,-4.87266 2,-6.26731 0,-3.62915 2.61461,-9.38639 4.61061,-10.15233 1.10971,-0.42583 2.33221,0.12693 3.51721,1.59034 0.99897,1.23368 2.24246,1.97967 2.76331,1.65777 1.77171,-1.09498 3.10887,-10.63583 3.10887,-22.18225 0,-15.35993 1.77205,-18.48989 7.15343,-12.63504 4.20432,4.57423 5.19208,8.42081 4.50438,17.5412 -0.34043,4.51484 -0.8942,9.38898 -1.23061,10.83143 -0.58009,2.48728 -0.36299,2.65991 4.2071,3.34524 24.48048,3.67107 37.96583,37.32372 22.88139,57.10044 -5.88111,7.71055 -18.19399,9.84765 -27.83428,4.8311 z m 17.0841,-12.64981 c 4.45454,-4.74163 4.82614,-16.83723 0.75891,-24.70237 -2.41868,-4.67722 -8.48777,-9.96027 -12.76544,-11.11213 -6.51158,-1.75339 -8.88297,-0.62643 -12.26191,5.82725 -1.64437,3.14071 -2.84972,6.39151 -2.67855,7.22401 0.61813,3.00645 6.34367,14.5375 8.84978,17.82318 5.4088,7.0913 13.89896,9.40889 18.09721,4.94006 z M 412.65308,450.4202 c -3.43886,-3.43887 -3.14838,-11.51029 0.41425,-11.51029 2.33166,0 2.3454,-0.24698 0.38176,-6.85926 -1.94497,-6.54943 -1.60698,-15.49716 0.60121,-15.91625 2.60559,-0.49452 8.31281,4.10505 10.89299,8.77889 2.93828,5.32251 3.52606,16.85135 1.09201,21.41885 -2.62751,4.93054 -10.22027,7.25 -13.38222,4.08806 z m 570.53277,-80.49057 c -5.31088,-3.84719 -7.47162,-8.12604 -7.47162,-14.79581 0,-6.79236 3.90355,-12.60313 10.89887,-16.22391 4.18236,-2.16479 6.24167,-2.51822 15.3584,-2.63586 5.7906,-0.0747 11.2793,0.25903 12.1971,0.74168 3.0465,1.60208 3.1057,6.13379 0.1952,14.94008 -4.737,14.33259 -11.4873,20.9541 -21.3617,20.9541 -4.74029,0 -6.39603,-0.5027 -9.81625,-2.98028 z m 13.51481,-12.26972 c 2.38049,-2.61356 4.29924,-6.10148 4.29924,-7.8151 0,-1.58908 -6.3932,-0.56249 -9.60573,1.54245 -3.83923,2.51556 -2.68932,8.52265 1.63146,8.52265 0.89412,0 2.54789,-1.0125 3.67503,-2.25 z m -131.2606,-3.20104 c -0.98619,-1.50513 -1.34296,-3.27973 -0.92444,-4.59835 0.37484,-1.18102 9.29919,-10.64698 19.8319,-21.03547 17.5322,-17.29214 19.04483,-19.05714 17.90139,-20.88808 -1.84882,-2.96043 -1.51785,-7.41552 0.76667,-10.31981 2.54757,-3.23871 7.45243,-4.87602 13.74664,-4.58882 l 4.91198,0.22413 17.45932,-15.42128 c 9.60262,-8.4817 19.91341,-17.51793 22.91286,-20.0805 l 5.45356,-4.65922 -6.84347,-3.09089 c -8.81678,-3.98215 -24.16625,-7.09067 -35.01285,-7.09067 -10.99882,0 -28.89097,3.41155 -34.25653,6.5318 -4.02339,2.33973 -7.21029,7.32731 -5.96716,9.33874 0.33695,0.5452 0.17787,1.25996 -0.3535,1.58837 -1.3432,0.83014 -3.06649,-2.72608 -3.06649,-6.32807 0,-8.72557 6.8212,-15.77765 20.5,-21.19388 5.48593,-2.1722 7.45652,-2.3759 23,-2.37754 13.07778,-0.001 18.49967,0.40312 23.5,1.75324 25.24047,6.81509 40.5211,17.12796 48.20384,32.53268 2.73036,5.47467 3.16282,7.39565 3.15232,14 -0.01,5.69359 -0.57352,8.91522 -2.20329,12.575 -8.08587,18.15757 -31.69992,30.57966 -58.13111,30.57966 -6.65507,0 -12.82024,-0.60322 -16.56166,-1.62043 -3.27806,-0.89124 -6.8601,-1.81252 -7.9601,-2.0473 -1.51185,-0.32268 -6.93332,4.3441 -22.21252,19.12043 -17.1682,16.60319 -20.66653,19.5473 -23.22694,19.5473 -2.09585,0 -3.50382,-0.7469 -4.62042,-2.45104 z m 88.86247,-47.17031 c 25.51621,-5.74801 38.50386,-21.98666 30.39048,-37.99765 -2.63633,-5.20254 -9.65651,-12.381 -12.10801,-12.381 -0.77505,0 -5.82046,5.0625 -11.21201,11.25 -5.39155,6.1875 -14.76862,16.425 -20.83794,22.75 -6.06931,6.325 -11.60806,12.52313 -12.30834,13.77363 -1.13632,2.02915 -1.02879,2.3718 1,3.18661 3.6891,1.48163 17.32035,1.16548 25.07582,-0.58159 z M 1307.9999,234.3424 c 0,-0.45641 16.2604,-28.84725 24.0161,-41.93249 0.978,-1.65 10.7617,-18.525 21.7416,-37.5 10.9799,-18.975 21.8206,-37.63338 24.0906,-41.46306 2.2699,-3.82968 4.296,-7.42968 4.5025,-7.99999 0.2065,-0.57032 0.7062,-0.73027 1.1105,-0.35545 0.4042,0.37482 -2.0716,5.99982 -5.5019,12.5 -11.3913,21.58583 -50.96,89.63118 -65.4594,112.56897 -2.6433,4.18165 -4.5,5.90716 -4.5,4.18202 z"
     id="path22"
     inkscape:connector-curvature="0" />
</svg>
